<?xml version="1.0" encoding="utf-8"?>
<!-- Generator: Adobe Illustrator 16.0.0, SVG Export Plug-In . SVG Version: 6.00 Build 0)  -->
<!DOCTYPE svg PUBLIC "-//W3C//DTD SVG 1.1//EN" "http://www.w3.org/Graphics/SVG/1.1/DTD/svg11.dtd">
<svg version="1.1" id="Layer_1" xmlns="http://www.w3.org/2000/svg" xmlns:xlink="http://www.w3.org/1999/xlink" x="0px" y="0px"
	 width="600px" height="400px" viewBox="0 0 600 400" enable-background="new 0 0 600 400" xml:space="preserve">
<g id="Layer_3" display="none">
	<g id="wykHZu.tif" display="inline">
		
			<image overflow="visible" enable-background="new    " width="2003" height="1337" id="Layer_0" xlink:href="E9BF1A72728E55AF.png"  transform="matrix(0.2995 0 0 0.2995 0.1387 -0.207)">
		</image>
	</g>
</g>
<g id="Layer_2">
	<rect x="-1" y="-1" width="200.167" height="401"/>
</g>
<g id="Layer_4">
	<rect x="400.5" y="-1" width="199.65" height="401"/>
</g>
<g id="Layer_5">
	<path fill="#231F20" d="M292.719,107.417l7.167-13.667l7.167,13.667l15.334,3l-11.167,10.5l3,15.833l-14.526-6.691l-13.974,6.691
		l2-15.666l-10.333-10.667L292.719,107.417z M299.885,117.084l-22.5-6.667 M299.885,117.084V93.75 M292.719,107.417l7.167,9.667
		 M299.885,117.084l7.167-9.667 M299.885,117.084l22.5-6.667 M299.885,117.084l11.334,3.833 M299.885,117.084l14.334,19.666
		 M299.885,117.084v13.063 M299.885,117.084l-12.167,4 M299.885,117.084l-14.167,19.666"/>
</g>
<g id="Layer_6">
	<path fill="#231F20" d="M361.083,232.25l0.667-0.083l1.083-0.833c0,0,1.5-0.042,1.625-0.125s0.959-0.042,1.459-0.042
		s0.541,0.167,0.875,0.208s1.166,0.5,1.166,0.5l0.75,0.625c0,0,0.292,0.209,0.459,0.417s0.125,0.917,0.125,0.917
		s0.083,0.25-1.375,1.583s0.333,0.292,0.583,0.375s0.792,0.708,0.875,0.917s0.375,0.958,0.333,1.083s-0.291,1.25-0.291,1.25
		l-0.875,1.292l-1.5,0.375h-1.209l-1.875-0.25l-1.083-0.292c0,0,0.042,1.042,0,1.292s-0.375,0.75-0.292,0.875
		s-0.583,0.708-0.708,0.916s-1.375,0.625-1.375,0.625h-0.833l-1.834-0.291l-1.666-0.459c0,0-0.5-0.875-0.521-1.041
		c-0.021-0.166-0.229-2.125-0.229-2.125l-1.25,0.583c0,0-2.042,0-2.167,0s-1.333-0.458-1.333-0.458l-1.209-0.792l-0.75-0.75
		l0.209-1.375l2.458-1.833l-0.167-0.375L350.417,234l-0.209-1.958l0.459-1.416l1.5-1.271l1.208-0.229l2.292,0.583v-0.833l1.25-1.417
		l2-0.5l2.083,0.458l1.208,0.917l0.375,1.458l-0.375,0.959c0,0-0.708,0.833-0.875,1L361.083,232.25z M359.21,244.938l-4.647-3.875
		 M359.667,243.875l-3.979-0.625l-0.875-2.188h-1.375l-2.771,3.604l-2.334,0.417L343.167,248l-2.834,2.833L338.5,254l-0.75,2.833
		l-1,3l-0.75,4.5l-19.333,9.334l-13.917,9.166l-1.333-0.667l-46.75-17.333L251.584,261l1-1.417l2.167-1.917l2.417-1.583l3.25-0.417
		l2.417,0.584l11.833,11.416l-9-16.916L262,249.917l-3,0.584l-4.083,1.166l-2.833,1.667l-2.583,2l-1.583,2.417l-3.25-3.084
		l-2.417-19.833l1.75-3.75l1.5-1.917l0.917-0.083c0,0,0.667,0.667,1.167,1s5.75,13.833,5.75,13.833l-4.167-21.583l-1.917-0.572
		L244.5,223l-3,3.75l-2.25-17l1.5-2.25l2.75-1l2,3.75L251,224l-0.31-1.652L246.5,200l-1-3.5l-2.75-0.25L238,200l-2-16.25l2.5-7
		l1.5-2.5l2.5,0.25l7.75,20.75l-4.75-29.5l-1.75-2.75l-2.5-0.5l-3,2.75l4-13c0,0-2-5-4.5-9.917s-4.5,14.167-4.5,14.167l2-12.5
		l-3.5,4.25l-1.5-4.5l-1.75,5.5l-4.5-6.917l1.25,8.167l-1.75-1.75l-2,12l3.25,9L218.5,166l-4,1.5L208,200l9.5-21.75h4.75l4.25,7.25
		l5.25,12.25L233,207l-8-12h-5.25l-3.25,2l-7.25,30.5L221,205.75h2.25l3.75,2.75l8.25,18l-4.75-4.5l-3.25-2.75H224l-4.25,2.25
		L211.5,253l12.75-21.75h3.25l5.5,4l5.25,14L232,251l-9,32l13.75-22H240l3.5,22.875l4.25-13.125v-5l16,10.75L296,287.25l-11.5,8.875
		V302h4.75l13.5-11.75l8.812,7.625l1.438,0.188l1.438-0.125l1.5-1.312l1.188-1.812l-0.188-2.125l-5.312-5.312L309,285.438
		l21.75-13.688l6.438-2.938l3.875,7.812l4.062-7.5l1.125-1.75l2.438-1.688h2.812l2.438-1.188l1.812,0.938l1.562,1.812l0.875,3
		l0.25,8.312l5-3.625l3.25-2.812l2.375-5.125l2.688,1.75l5.062,1.562c0,0,6,0.312,6,0.062s-1.562-3.562-1.562-3.562
		s-1.125-1.75-1.188-1.938c-0.063-0.188,0.438-2.188,0.438-2.812c0-0.625,0.875-2.188,0.875-2.188s0-3.438-0.125-3.625
		s-3.875-8.375-3.875-8.375l-2.062-2.438l-3-1.5c0,0-1.812-0.625-2.062-0.75s-2.375-0.375-2.375-0.375s-1.938,0.25-2.125,0.25
		s-1.875,0.312-1.875,0.312l-2,1.062l-1.125,0.75L359.667,243.875z M366.58,228.445l0.92-2.133l2.438,0.125l4.062,3.125
		c0,0,2.375,3.25,2.5,3.438s1.062,1.938,1.375,2.062c0.312,0.123,1.438,3.312,1.5,3.562s0.188,2.562,0.188,2.562l-1.188,3.75
		l5.75-5.812l1.25-6.625v-2.875V227v-1.938l-4.5-6.5l-1.688-1.125l-1.062,0.25l-1.875-0.062l-1.688-0.375l-0.875-0.438l-0.938-1.312
		l-0.938-0.688l-1.562-0.062l-1.625,0.688L368,216c0,0-0.125-0.5,0.312-1.188c0.437-0.688,0.438-0.375,0.438-0.375l0.438-0.562
		l-0.625-0.438l-1.688-0.75l-0.75-0.875v-1.688l1.125-1.062l1.312-0.812l0.125-0.688l-1-0.75l-0.25-1.5l0.25-1l0.688-1.5l0.812-0.5
		v-0.562v-2.125l-3.25-5.312l-0.812-4l-0.375-1.938V186.5l-1.562-1l0.125,0.438l0.375,1.875l-0.062,2.688v2.5v1.625l-0.188-0.375
		l-0.312-0.375l-1.625-0.625c0,0-1.5-0.562-2-0.812s-1.938-0.312-1.938-0.312l-1.438-0.062l-2.375,0.5l-1.188,1.875l-0.812,5.875
		l-0.562,2.062l-0.938,2.125l-1.062,1.75l-1.5,1.5l-1.875,2.188l9.125-3.312l3.062-1.5l3.125-1.062l3.209-1.188v5.293l-2.833-0.917
		l-2-0.167l-1.917,0.084l-2.333,0.416l-1.333,1.25l-1.667,3.167l0.083,2.583l-0.25,3.917c0,0-0.833,2-0.916,2.333
		s-0.584,2.834-0.584,2.834l-1,1.583l-1.917,3.583l1.583-0.333c0,0,2.917-0.667,3.25-0.667s2.75-0.5,2.75-0.5l3.834-1.833
		l1.666-1.417l1.584-1.833l-0.896,2.999L361,226.688l1.35,2.194l0.233,2.646l3.635-0.334L366.58,228.445z M370.291,201.833
		l-1.958,1.069l-0.208,1.306l-0.167,2.125l0.299,0.907l0.868,0.218v0.709l-1.375,1.208l-0.96,0.122l-0.207,0.753l-0.208,0.833l0.5,1
		l0.421,0.792l2.037,0.167l0.292,0.625l-1.571,1.712l2.529-1.046l1.75-0.5l0.252,1.546l0.917,1.173l1.581,0.531h3.208l1.5-0.375
		l0.917-1.208l0.375-1.833l0.208-0.459c0,0-0.5-0.333,0.542,0.292s1.417,0.792,1.417,0.792s0.874-0.041,1.166,0
		s2.209-0.25,2.209-0.25s1-0.625,1.125-0.917s0.875-2.208,0.875-2.208l-1.334-1.459l-1.041-0.958l0.666-1.208
		c0,0,0.916-0.874,0.75-0.958s-0.833-1.25-0.833-1.25l-1.042-0.667l-2.375-0.25h-2.666L379.541,205l-0.416-0.166l0.916-1.375
		c0,0,0.376-1.209,0.334-1.334s-0.625-1.416-0.625-1.416L378.458,200l-1.417-0.292h-1.375c0,0-1.124,0.583-1.166,0.708
		s-1.292,0.708-1.292,0.833s0,1.25,0,1.25L370.291,201.833z M365.166,186.417l-0.182,3.169l0.48,2.403l0.909,2.094l0.671,2.041
		l2.454,3.125l2.25-5.083l1.416-3.917l0.75-2.5l3.584-1.833l4.083-0.417l4.5-1.75l0.833-0.583l-2.833-2.75l-6.917-2.75h-1.583
		l-1.917,0.5l-1-5.667l-1.75-3.417l-1.833-3.583l-1.917,3l-2.183,6.083V178v1.417l-3.067-1.583l-3.25-0.167l-2.75,1.167l-1.416,2.25
		l-1.834,1.292L352,183.667l2.916,1.333l2.167,0.5h4.167h1.938l1.158,0.741L365.166,186.417z M370.666,199.25l2.584,0.75l3.416-0.75
		l2.917,0.75l2,2.5l2.667,1.084l3.916,2.666l1.584,1.75h0.916v-2.333l-1.166-2.833l-6.688-14.167c0,0-2.646-1.917-3.312-2
		s-1.584,0-1.584,0l-4,1.083l-4.102,10.789L370.666,199.25z M353.417,181.083l2.916-2.917l3.667-0.75l4.497,1.749l0.487-4.582
		l2.183-7.333l-1.573-0.25l-1.427-0.5v1.5l-0.667,1.25l-1.5,1l-1.25,0.583h-1.833l-1.584-0.75l-0.916-0.333l-1.334,1.25l-2.25,4.833
		l0.334,5.25H353.417z M372.25,163.5l-0.583,1.5l-1.25,1.833l3.083,5.417l0.75,0.417h3.25l3.75-0.5c0,0,3.583-1,4.125-1
		s2.375-1.75,2.375-1.75l2.417-2.583l2.083-4.5h-6.417h-1.416l-4.5-3h-5l-3.917,3L372.25,163.5z M356.417,155.25L352,155
		l-0.75,1.417l-0.75,1.833l0.833,1.833l0.25,0.917l-1.5,0.833l-1.166,1.75L349.75,165l1.667,1l2.166,0.5h2.25l0.167,1.75
		l1.417,1.167L359,169.75h3.25l1-1.667l0.333-1.583l0.334-1l1.333,0.5l1.583,0.5l1-1l0.5-1.5l1.481-0.167l0.603,1.667
		c0,0,0.916-1.333,0.916-1.583s-0.916-2-0.916-2l-0.959-0.667l1.875-2.25l-1.875-1.5l-2.708-0.417l-3.25,0.083l-1.083,0.083
		l0.916-1.75l0.084-1.5l-1.75-1.083h-2.084h-1.916l-1.417,1.917L356.417,155.25z M361.416,139.167H360c0,0-0.5,0.25-0.917,0.417
		s-0.667,0.25-0.667,0.25l-0.5,0.417l-1,0.75c0,0,0.084,0.917,0.084,1.333s0.583,1.333,0.583,1.333l1.083,1.25l-0.916,0.5
		l-0.75,0.458l-0.667,0.875l-0.667,1v1.167l0.667,0.917l1.167,0.917l0.583,0.083h2.042h2.125v0.833l1.167,2.333l0.749,0.75h1.428
		l1.573-0.333h1.666l1.584-2l-0.001-1.667l0.584,0.583h1.166l2.167-0.333h1.25l1-0.417l1.167-1.167V148.5l-0.584-1.25l-1.333-1.75
		h0.417l0.916-1.083c0,0,0-1.167,0-1.5s-0.583-0.583-0.583-0.583l-1-0.81c0,0-1.5-0.524-1.75-0.607s-1.333,0.083-1.75,0
		s-1.583,0.5-2.083,0.607s-1.584,0-1.584,0h1.042v-1.94v-1.292v-0.625L368.083,137h-1.833h-1.084l-1.666,0.417l-0.417,1.167v1
		L361.416,139.167z M368.416,156.583v-1.333h-3.166v1.333H368.416z"/>
	<circle fill="#231F20" cx="231.812" cy="131.188" r="0.562"/>
	<circle fill="#231F20" cx="237.812" cy="139.188" r="0.562"/>
	<circle fill="#231F20" cx="235.812" cy="136.188" r="0.562"/>
	<circle fill="#231F20" cx="233.812" cy="134.188" r="0.562"/>
	<circle fill="#231F20" cx="229.812" cy="133.188" r="0.562"/>
	<circle fill="#231F20" cx="221.812" cy="135.188" r="0.562"/>
	<circle fill="#231F20" cx="227.812" cy="134.188" r="0.562"/>
	<circle fill="#231F20" cx="224.812" cy="134.188" r="0.562"/>
	<circle fill="#231F20" cx="222.812" cy="144.188" r="0.562"/>
	<circle fill="#231F20" cx="220.812" cy="140.188" r="0.562"/>
	<circle fill="#231F20" cx="222.812" cy="138.188" r="0.562"/>
	<circle fill="#231F20" cx="233.812" cy="141.188" r="0.562"/>
	<circle fill="#231F20" cx="230.812" cy="142.188" r="0.562"/>
	<circle fill="#231F20" cx="222.812" cy="140.188" r="0.562"/>
	<circle fill="#231F20" cx="234.812" cy="139.188" r="0.562"/>
	<circle fill="#231F20" cx="226.812" cy="143.188" r="0.562"/>
	<circle fill="#231F20" cx="221.812" cy="142.188" r="0.562"/>
	<circle fill="#231F20" cx="231.812" cy="139.188" r="0.562"/>
	<circle fill="#231F20" cx="228.812" cy="139.188" r="0.562"/>
	<circle fill="#231F20" cx="232.812" cy="143.188" r="0.562"/>
	<circle fill="#231F20" cx="225.812" cy="139.188" r="0.562"/>
	<circle fill="#231F20" cx="230.812" cy="136.188" r="0.562"/>
	<circle fill="#231F20" cx="226.812" cy="137.188" r="0.562"/>
	<circle fill="#231F20" cx="226.812" cy="141.188" r="0.562"/>
	<circle fill="#231F20" cx="232.812" cy="136.188" r="0.562"/>
	<circle fill="#231F20" cx="223.812" cy="136.188" r="0.562"/>
	<circle fill="#231F20" cx="224.812" cy="141.188" r="0.562"/>
	<circle fill="#231F20" cx="231.812" cy="133.188" r="0.562"/>
	<circle fill="#231F20" cx="231.812" cy="137.188" r="0.562"/>
</g>
<g id="Layer_7">
	<path fill="#231F20" d="M251,144.188l96.5,0.562l-0.833,33.584c0,0-1.167-0.667-0.854-1.167c0.313-0.5-3.479-2.5-3.979-2.75
		s-3.5-2.083-3.5-2.083L334,170.5l-4.333,1l-3,0.833l-3.167,2.833l-3.5,1.667l-3.833,0.833L311.334,176c0,0-3.167-3-3.667-3.333
		s-5.5-2.167-5.5-2.167h-4.833l-3.667,2.5l-3.833,1.417l-2.667,3.917h-5.333l-3.667-1.667l-3-2.25L271.833,172L269,170.5h-3.667
		l-5.833,3.292l-7.167,4.542L251,144.188z M269.167,157.167L264.5,159.5l-4,1.833l-3,1.167l1.5,2.167l5.333,1.833l4.833,2l0.667-2h4
		l6.167,3.25v-2.583l-2.167-1.667l5.167-2.041l7.333,3.041l-1-7.666l-5.833,2.499l-7.333-1.666l4.167-0.5l-1.5-2L273.167,159
		L270,159.167L269.167,157.167z M295.326,145.875l-4.667,2.333l-4,1.833l-3,1.167l1.5,2.167l5.333,1.833l4.833,2l0.667-2h4
		l6.166,3.25v-2.583l-2.166-1.667l5.166-2.041l7.334,3.041l-1-7.666l-5.834,2.499l-7.332-1.666l4.166-0.5l-1.5-2l-5.667,1.833
		l-3.167,0.167L295.326,145.875z M319.833,157.167l-4.667,2.333l-4,1.833l-3,1.167l1.5,2.167L315,166.5l4.833,2l0.667-2h4
		l6.166,3.25v-2.583L328.5,165.5l5.166-2.041L341,166.5l-1-7.666l-5.834,2.499l-7.333-1.666l4.167-0.5l-1.5-2L323.833,159
		l-3.167,0.167L319.833,157.167z"/>
	<path fill="#231F20" d="M252.833,213l4-4.604l2.833,0.938l5.833,2.5l0.833-22.167h-2.5l-0.5-6h3l0.833,2.963h6.333v-2.963h3v2.963
		h7.667v-2.963h3l-0.833,5.5L284,189.834l-0.5,20.666l10.5-5.833l2.333,1l2,4.667L299.25,213l3.916-7.166l3.667-2.667l5,2.333
		l2.5,2.896l6.167-9.146l8.833,9.917l3.333-2l4.834-3l5.833,3.833l3.167,5l0.559,14.682c0,0-5.519,32.818-47.809,32.818
		c-39.083,0-46.538-33.541-46.538-33.541L252.833,213z M269.25,232.5l4.75-1.25l5.25,1.25h2l-3-3.25H273L269.25,232.5z
		 M267.954,241.062l4.75-1.25l5.25,1.25h2l-3-3.25h-5.25L267.954,241.062z M269.25,248.875l4.75-1.25l5.25,1.25h2l-3-3.25H273
		L269.25,248.875z M294.226,252.477l-4.652,1.575l-5.323-0.884l-1.995,0.139l3.217,3.034l5.238-0.362L294.226,252.477z
		 M294.226,243.693l-4.652,1.574l-5.323-0.884l-1.995,0.138l3.217,3.035l5.238-0.361L294.226,243.693z M294.226,235.881
		l-4.652,1.575l-5.323-0.884l-1.995,0.138l3.217,3.035l5.238-0.362L294.226,235.881z M294.226,227.316l-4.652,1.576l-5.323-0.885
		l-1.995,0.139l3.217,3.035l5.238-0.363L294.226,227.316z M267.954,227.316l-4.652,1.576l-5.323-0.885l-1.995,0.139l3.217,3.035
		l5.238-0.363L267.954,227.316z M300,227.316v3.865l7.5,4.234l5.75,0.464l9.75-4.28l5.25,0.9l6.75,3.381l8.5-3.381l1.25-3.25
		l-10,3.25l-11-5.184L311.5,232.5L300,227.316z M300,236.78v3.864l6.83,4.234l5.234,0.464l8.879-4.28l4.781,0.899l6.146,3.381
		l7.739-3.381l1.14-3.25l-9.106,3.25l-10.017-5.183l-11.155,5.183L300,236.78z M328.518,249.648l-9.266-4.451l-10.316,4.451
		l-9.686-4.451v3.318l6.316,3.639l4.843,0.398l8.213-3.678l4.421,0.773l5.686,2.903L328.518,249.648z"/>
</g>
</svg>
