<?xml version="1.0" encoding="utf-8"?>
<!-- Generator: Adobe Illustrator 16.0.0, SVG Export Plug-In . SVG Version: 6.00 Build 0)  -->
<!DOCTYPE svg PUBLIC "-//W3C//DTD SVG 1.1//EN" "http://www.w3.org/Graphics/SVG/1.1/DTD/svg11.dtd">
<svg version="1.1"
	 id="svg2" xmlns:dc="http://purl.org/dc/elements/1.1/" xmlns:cc="http://web.resource.org/cc/" xmlns:rdf="http://www.w3.org/1999/02/22-rdf-syntax-ns#" xmlns:svg="http://www.w3.org/2000/svg" xmlns:sodipodi="http://sodipodi.sourceforge.net/DTD/sodipodi-0.dtd" xmlns:inkscape="http://www.inkscape.org/namespaces/inkscape" sodipodi:docbase="C:\Documents and Settings\guillermo\Mis documentos\Mis imágenes\Nueva carpeta" sodipodi:docname="Bandeira_do_Amapá.svg" inkscape:version="0.44.1" sodipodi:version="0.32"
	 xmlns="http://www.w3.org/2000/svg" xmlns:xlink="http://www.w3.org/1999/xlink" x="0px" y="0px" width="1000px" height="700px"
	 viewBox="0 0 1000 700" enable-background="new 0 0 1000 700" xml:space="preserve">
<rect x="-40.382" y="-50.89" display="none" fill="#7F0D2E" width="1064.947" height="775.461"/>
<path d="M1000,200H270.711l-200-200H1000V200z M46.669,0l217,217H1000v-17H270.711l-200-200H46.669z"/>
<path d="M70.711,700l200-200H1000v200H70.711z M46.669,700l217-217H1000v17H270.711l-200,200H46.669z"/>
<path d="M0,0l250,250h750v200H250L0,700V0z M152,398l-6,12l18,24l18-24l-6-12l36-36l12,6l24-18l-24-18l-12,6l-36-36l6-12l-18-24
	l-18,24l6,12l-36,36l-12-6l-24,18l24,18l12.6-6L152,398z M212,350l12-6l8,6l-8,6L212,350z M164,398l6,12l-6,8l-6-8L164,398z
	 M164,302l-6-12l6-8l6,8L164,302z M116,350l-12,6l-8-6l8-6L116,350z M200,349.999L164,386l-36-36l36-36L200,349.999z"/>
</svg>
