<?xml version="1.0" encoding="utf-8"?>
<!-- Generator: Adobe Illustrator 16.0.0, SVG Export Plug-In . SVG Version: 6.00 Build 0)  -->
<!DOCTYPE svg PUBLIC "-//W3C//DTD SVG 1.1//EN" "http://www.w3.org/Graphics/SVG/1.1/DTD/svg11.dtd">
<svg version="1.1" xmlns="http://www.w3.org/2000/svg" xmlns:xlink="http://www.w3.org/1999/xlink" x="0px" y="0px" width="700px"
	 height="500px" viewBox="0 0 700 500" enable-background="new 0 0 700 500" xml:space="preserve">
<g id="Layer_1">
	<rect y="166.667" width="700" height="166.667"/>
</g>
<g id="Layer_2">
	<path d="M0,0h300v166.667H0V0z M137.265,100.862L150,91.593l12.735,9.269l-4.88-14.976l12.751-9.248h-14.927L150,61.667l-4.833,15
		l-15.773-0.029l12.751,9.248L137.265,100.862z M26.99,42.021l6.343-4.616l6.343,4.616l-2.431-7.459l6.351-4.606h-7.434L33.333,22.5
		l-2.406,7.471l-7.856-0.015l6.351,4.606L26.99,42.021z M60.324,42.021l6.343-4.616l6.343,4.616l-2.431-7.459l6.351-4.606h-7.434
		L66.667,22.5l-2.406,7.471l-7.856-0.015l6.351,4.606L60.324,42.021z M93.657,42.021L100,37.405l6.343,4.616l-2.431-7.459
		l6.351-4.606h-7.434L100,22.5l-2.406,7.471l-7.856-0.015l6.351,4.606L93.657,42.021z M126.99,42.021l6.343-4.616l6.343,4.616
		l-2.431-7.459l6.351-4.606h-7.434l-2.829-7.456l-2.406,7.471l-7.856-0.015l6.351,4.606L126.99,42.021z M160.324,42.021l6.343-4.616
		l6.343,4.616l-2.431-7.459l6.351-4.606h-7.434l-2.829-7.456l-2.406,7.471l-7.856-0.015l6.351,4.606L160.324,42.021z
		 M193.657,42.021L200,37.405l6.343,4.616l-2.431-7.459l6.351-4.606h-7.434L200,22.5l-2.406,7.471l-7.856-0.015l6.351,4.606
		L193.657,42.021z M226.99,42.021l6.343-4.616l6.343,4.616l-2.431-7.459l6.351-4.606h-7.434l-2.829-7.456l-2.406,7.471l-7.856-0.015
		l6.351,4.606L226.99,42.021z M260.324,42.021l6.343-4.616l6.343,4.616l-2.431-7.459l6.351-4.606h-7.434l-2.829-7.456l-2.406,7.471
		l-7.856-0.015l6.351,4.606L260.324,42.021z M260.324,75.354l6.343-4.616l6.343,4.616l-2.431-7.459l6.351-4.606h-7.434l-2.829-7.456
		l-2.406,7.471l-7.856-0.015l6.351,4.606L260.324,75.354z M193.657,75.354L200,70.738l6.343,4.616l-2.431-7.459l6.351-4.606h-7.434
		L200,55.833l-2.406,7.471l-7.856-0.015l6.351,4.606L193.657,75.354z M193.657,108.688l6.343-4.616l6.343,4.616l-2.431-7.459
		l6.351-4.606h-7.434L200,89.167l-2.406,7.471l-7.856-0.015l6.351,4.606L193.657,108.688z M260.324,108.688l6.343-4.616l6.343,4.616
		l-2.431-7.459l6.351-4.606h-7.434l-2.829-7.456l-2.406,7.471l-7.856-0.015l6.351,4.606L260.324,108.688z M260.324,142.021
		l6.343-4.616l6.343,4.616l-2.431-7.459l6.351-4.606h-7.434l-2.829-7.456l-2.406,7.471l-7.856-0.015l6.351,4.606L260.324,142.021z
		 M226.99,142.021l6.343-4.616l6.343,4.616l-2.431-7.459l6.351-4.606h-7.434l-2.829-7.456l-2.406,7.471l-7.856-0.015l6.351,4.606
		L226.99,142.021z M193.657,142.021l6.343-4.616l6.343,4.616l-2.431-7.459l6.351-4.606h-7.434L200,122.5l-2.406,7.471l-7.856-0.015
		l6.351,4.606L193.657,142.021z M160.324,142.021l6.343-4.616l6.343,4.616l-2.431-7.459l6.351-4.606h-7.434l-2.829-7.456
		l-2.406,7.471l-7.856-0.015l6.351,4.606L160.324,142.021z M126.99,142.021l6.343-4.616l6.343,4.616l-2.431-7.459l6.351-4.606
		h-7.434l-2.829-7.456l-2.406,7.471l-7.856-0.015l6.351,4.606L126.99,142.021z M93.657,142.021l6.343-4.616l6.343,4.616
		l-2.431-7.459l6.351-4.606h-7.434L100,122.5l-2.406,7.471l-7.856-0.015l6.351,4.606L93.657,142.021z M60.324,142.021l6.343-4.616
		l6.343,4.616l-2.431-7.459l6.351-4.606h-7.434l-2.829-7.456l-2.406,7.471l-7.856-0.015l6.351,4.606L60.324,142.021z M26.99,142.021
		l6.343-4.616l6.343,4.616l-2.431-7.459l6.351-4.606h-7.434l-2.829-7.456l-2.406,7.471l-7.856-0.015l6.351,4.606L26.99,142.021z
		 M26.99,108.764l6.343-4.616l6.343,4.616l-2.431-7.459l6.351-4.606h-7.434l-2.829-7.456l-2.406,7.471l-7.856-0.015l6.351,4.606
		L26.99,108.764z M93.657,108.764l6.343-4.616l6.343,4.616l-2.431-7.459l6.351-4.606h-7.434L100,89.243l-2.406,7.471l-7.856-0.015
		l6.351,4.606L93.657,108.764z M26.99,75.354l6.343-4.616l6.343,4.616l-2.431-7.459l6.351-4.606h-7.434l-2.829-7.456l-2.406,7.471
		L23.07,63.29l6.351,4.606L26.99,75.354z M93.657,75.354L100,70.738l6.343,4.616l-2.431-7.459l6.351-4.606h-7.434L100,55.833
		l-2.406,7.471l-7.856-0.015l6.351,4.606L93.657,75.354z"/>
</g>
</svg>
