<?xml version="1.0" encoding="utf-8"?>
<!-- Generator: Adobe Illustrator 16.0.0, SVG Export Plug-In . SVG Version: 6.00 Build 0)  -->
<!DOCTYPE svg PUBLIC "-//W3C//DTD SVG 1.1//EN" "http://www.w3.org/Graphics/SVG/1.1/DTD/svg11.dtd">
<svg version="1.1" xmlns="http://www.w3.org/2000/svg" xmlns:xlink="http://www.w3.org/1999/xlink" x="0px" y="0px" width="720px"
	 height="504px" viewBox="0 0 720 504" enable-background="new 0 0 720 504" xml:space="preserve">
<g id="Layer_4">
</g>
<g id="Layer_3">
	<path fill="#231F20" d="M720,503.85H0v-504h720V503.85z M358.5,439.5l294-187.5L360,64.5L64.5,251.85L358.5,439.5z"/>
</g>
<g id="Layer_5">
</g>
<g id="Layer_6">
	<path fill="#231F20" d="M477.25,252c0,64.756-52.494,117.25-117.25,117.25c-64.755,0-117.25-52.494-117.25-117.25
		c0-64.755,52.495-117.25,117.25-117.25C424.756,134.75,477.25,187.245,477.25,252z M286,215c0,0,11.981,13.73,13,19.5
		c2.394,13.554-14.595,39.828-13,53.5c1,8.575,12.76,23.106,19.5,28.5C315.778,324.725,351,343,351,343l9,9l6-7.5
		c0,0,33.524-17.905,44-25c7.255-4.913,21.796-17.406,23.5-26c2.938-14.814-15.787-44.155-13-59c1.081-5.758,13-19.5,13-19.5
		L413,187.5h-10l-8.5-22l6.5-3.5l1-8l-11-3.5v6l-7.5-0.5v-5.5H373l-0.5,4.5h-8v-4.5H355v5l-10.5-1l0.5-4h-9.5v5.5l-7,0.5v-6l-12,3
		l1.5,7.5l6.5,5l-7.5,19l-10,1.5L286,215z"/>
</g>
<g id="Layer_7">
	<ellipse fill="#231F20" cx="360" cy="257.25" rx="42" ry="53.75"/>
</g>
<g id="Layer_2" display="none">
	<g id="_x34_gEbbd.tif" display="inline">
		
			<image overflow="visible" width="1000" height="700" id="Layer_0" xlink:href="712FA165C3706455.png"  transform="matrix(0.72 0 0 0.72 0 -0.1499)">
		</image>
	</g>
</g>
</svg>
