<?xml version="1.0" encoding="utf-8"?>
<!-- Generator: Adobe Illustrator 16.0.0, SVG Export Plug-In . SVG Version: 6.00 Build 0)  -->
<!DOCTYPE svg PUBLIC "-//W3C//DTD SVG 1.1//EN" "http://www.w3.org/Graphics/SVG/1.1/DTD/svg11.dtd">
<svg version="1.1" xmlns="http://www.w3.org/2000/svg" xmlns:xlink="http://www.w3.org/1999/xlink" x="0px" y="0px" width="1500px"
	 height="1050px" viewBox="0 0 1500 1050" enable-background="new 0 0 1500 1050" xml:space="preserve">
<g id="Layer_2">
</g>
<g id="svg2" xmlns:dc="http://purl.org/dc/elements/1.1/" xmlns:cc="http://creativecommons.org/ns#" xmlns:rdf="http://www.w3.org/1999/02/22-rdf-syntax-ns#" xmlns:svg="http://www.w3.org/2000/svg" xmlns:sodipodi="http://sodipodi.sourceforge.net/DTD/sodipodi-0.dtd" xmlns:inkscape="http://www.inkscape.org/namespaces/inkscape" sodipodi:docname="Bandeira_do_Distrito_Federal.svg" inkscape:version="0.48.2 r9819" display="none">
	
		<sodipodi:namedview  inkscape:cy="680.55292" inkscape:cx="750.01905" inkscape:zoom="0.2" showgrid="false" guidetolerance="10" gridtolerance="10" pagecolor="#ffffff" borderopacity="1" bordercolor="#666666" objecttolerance="10" id="namedview11" inkscape:current-layer="svg2" inkscape:window-maximized="1" inkscape:window-y="-8" inkscape:window-x="-8" inkscape:window-height="538" inkscape:pageshadow="2" inkscape:pageopacity="0" inkscape:window-width="1024">
		</sodipodi:namedview>
	<rect id="rect3635" y="0.002" fill="#FFFFFF" width="1500" height="1049.994"/>
	<path id="path2859" inkscape:connector-curvature="0" display="inline" fill="#231F20" d="M713,486.149V375.856l25.9-27.185
		v-50.486H713l37-38.835l37,38.835h-25.9v50.486l25.9,27.185v110.293l-37-38.836L713,486.149z"/>
	<path id="path3619" inkscape:connector-curvature="0" display="inline" fill="#231F20" d="M713,563.849H607.959l-25.891-27.194
		h-48.082v27.194L497,524.999l36.986-38.85v27.194h48.082l25.891-27.194H713l-36.986,38.85L713,563.849z"/>
	<path id="path3621" inkscape:connector-curvature="0" display="inline" fill="#231F20" d="M787,486.149h105.041l25.891,27.194
		h48.082v-27.194l36.986,38.85l-36.986,38.85v-27.194h-48.082l-25.891,27.194H787l36.986-38.85L787,486.149z"/>
	<path id="path3623" inkscape:connector-curvature="0" display="inline" fill="#231F20" d="M787,563.849v110.293l-25.9,27.185
		v50.486H787l-37,38.835l-37-38.835h25.9v-50.486L713,674.142V563.849l37,38.836L787,563.849z"/>
</g>
<g id="Layer_3">
	<path fill="#231F20" d="M490,252h520v545.998H490V252z M713,674.142l24.5,27.358v51l-24.5-0.688l37,38.835l37-38.835h-25.9v-50.486
		l25.9-27.185V563.849l-37,38.836l-37-38.836V674.142z M893.459,561.149l26.158-24.5h48.764l-0.657,24.5l37.134-37l-37.134-37v25.9
		h-48.272l-25.992-25.9H788l37.133,37l-37.133,37H893.459z M606.97,486.999l-26.158,24.5h-48.764l0.657-24.5l-37.134,37l37.134,37
		v-25.9h48.272l25.992,25.9h105.459l-37.133-37l37.133-37H606.97z M787,375.856l-24.5-27.358v-51l24.5,0.688l-37-38.835l-37,38.835
		h25.9v50.486L713,375.856v110.293l37-38.836l37,38.836V375.856z"/>
</g>
</svg>
