<?xml version="1.0" encoding="utf-8"?>
<!-- Generator: Adobe Illustrator 16.0.0, SVG Export Plug-In . SVG Version: 6.00 Build 0)  -->
<!DOCTYPE svg PUBLIC "-//W3C//DTD SVG 1.1//EN" "http://www.w3.org/Graphics/SVG/1.1/DTD/svg11.dtd">
<svg version="1.1" xmlns="http://www.w3.org/2000/svg" xmlns:xlink="http://www.w3.org/1999/xlink" x="0px" y="0px" width="2000px"
	 height="1400px" viewBox="0 0 2000 1400" enable-background="new 0 0 2000 1400" xml:space="preserve">
<g id="Layer_2" display="none">
	<rect x="-164.797" y="-59.756" display="inline" fill="#82711C" width="2349.235" height="1539.154"/>
</g>
<g id="svg2" xmlns:dc="http://purl.org/dc/elements/1.1/" xmlns:cc="http://creativecommons.org/ns#" xmlns:rdf="http://www.w3.org/1999/02/22-rdf-syntax-ns#" xmlns:svg="http://www.w3.org/2000/svg">
	<rect id="rect6" display="none" fill="#FFFFFF" width="2000" height="1400"/>
	<rect id="rect8" width="2000" height="466.667"/>
	<rect id="rect10" y="933.333" width="2000" height="466.667"/>
	<path id="path12" d="M324.394,808.484l-32.728-65.605l-25.757,10.605L259.242,740l69.091-28.333L335,725l-25.758,10.606
		l32.728,65.605L324.394,808.484 M379.091,786.363l-35.151-80.757l37.879-13.485c9.394-3.484,16.667-5.151,21.515-5.303
		c5-0.151,9.545,1.212,13.788,3.939c4.243,2.879,7.272,6.666,9.394,11.363c2.576,6.061,2.879,11.818,0.606,17.121
		c-2.121,5.304-6.97,10-14.242,13.788c4.697,0.606,8.939,1.818,12.424,3.333c3.637,1.516,8.939,4.697,16.061,9.395l17.728,11.818
		l-21.516,7.727l-20.605-12.879c-7.424-4.696-12.272-7.424-14.697-8.484c-2.424-1.061-4.697-1.516-6.818-1.363
		c-2.121,0-5.303,0.757-9.394,2.272l-3.636,1.363l14.697,33.637L379.091,786.363 M376.818,733.333L390,728.484
		c8.636-3.03,13.939-5.303,15.758-6.666c1.818-1.516,3.03-3.182,3.484-5.303c0.606-1.97,0.303-4.243-0.757-6.667
		c-1.212-2.728-2.879-4.697-5.303-5.758c-2.272-1.061-5-1.363-8.03-0.758c-1.667,0.304-6.061,1.818-13.333,4.395l-13.939,5.151
		L376.818,733.333 M550.758,729.697l-20,6.061l-14.697-16.212l-36.212,10.908l-0.606,20.909l-19.545,5.909l5.151-93.03l19.394-5.758
		L550.758,729.697 M505,707.424l-23.637-26.817l-1.061,34.242L505,707.424 M535.909,643.484l36.818-9.091
		c7.424-1.817,12.879-2.878,16.666-3.182c3.637-0.454,7.273,0,10.606,1.061s6.363,2.728,9.242,5.304
		c2.728,2.424,4.697,5.454,5.758,8.939c1.061,3.938,1.061,7.878-0.303,11.666c-1.364,3.939-3.788,7.121-7.272,9.697
		c6.061,0.151,11.212,1.667,15.303,4.394c4.091,2.879,6.818,6.667,8.182,11.516c1.212,3.788,1.363,7.879,0.454,11.97
		c-0.909,3.939-2.727,7.575-5.454,10.605c-2.728,2.879-6.516,5.304-11.212,6.97c-3.03,1.061-10.455,3.03-22.272,6.061l-31.516,7.728
		L535.909,643.484 M558.788,652.728l5.758,19.394l12.121-3.03c7.272-1.818,11.818-3.03,13.484-3.637
		c3.03-1.061,5.303-2.727,6.667-4.696c1.212-2.121,1.515-4.546,0.757-7.273c-0.757-2.575-2.272-4.545-4.242-5.757
		c-2.121-1.212-4.696-1.667-7.879-1.212c-1.969,0.303-7.272,1.515-16.061,3.636L558.788,652.728 M568.637,686.061l6.817,22.424
		l17.121-4.242c6.818-1.666,10.91-2.879,12.728-3.636c2.576-1.213,4.546-2.879,5.606-5c1.363-2.273,1.516-4.849,0.605-7.879
		c-0.757-2.425-2.121-4.395-3.939-5.909c-1.817-1.364-4.242-2.121-6.969-2.272c-2.879-0.152-8.485,0.757-16.818,2.878
		L568.637,686.061 M738.485,688.637l-20.455,3.939l-12.728-17.728l-37.272,7.121l-3.333,20.758l-20,3.788l16.817-91.818l20-3.788
		L738.485,688.637 M695.909,661.667l-20.151-29.091l-5.304,33.939L695.909,661.667 M749.546,687.272l-14.395-85.151l19.091-2.575
		l11.97,70.605l47.425-6.515l2.424,14.394L749.546,687.272 M829.849,676.363L820.758,590L840,588.333l3.485,34.091l37.727-3.333
		l-3.637-33.939l19.243-1.667l9.091,86.364l-19.242,1.667l-3.939-37.728L845,636.97l3.939,37.728L829.849,676.363 M1011.97,666.061
		l-20.909,0.606l-9.091-19.395l-38.182,1.061l-7.121,20l-20.455,0.606l33.939-87.879l20.455-0.606L1011.97,666.061 M975.151,632.879
		l-14.242-31.818l-11.818,32.576L975.151,632.879 M1096.667,668.182l6.969-86.515l70.606,4.849l-1.061,14.545l-51.515-3.484
		l-1.516,19.242L1168.03,620l-1.212,14.546l-47.879-3.183L1116.97,655l53.333,3.484l-1.212,14.697L1096.667,668.182
		 M1325.303,661.97l17.425,8.333c-4.697,8.939-10.758,15-18.334,18.485c-7.424,3.484-16.212,4.394-26.212,2.728
		c-12.575-2.122-21.97-7.728-28.484-16.667c-6.516-9.091-8.485-20.455-5.758-33.788c2.879-14.242,9.091-24.545,18.788-31.061
		c9.545-6.667,21.061-8.788,34.242-6.667c11.363,1.97,20.151,6.516,26.061,13.939c3.637,4.243,5.758,10,6.516,17.273L1330,635.454
		c-0.303-4.545-1.97-8.484-5-11.515c-2.879-3.182-6.97-5.151-11.97-6.061c-6.97-1.061-13.182,0.303-18.333,4.091
		c-5.304,3.788-8.939,10.758-10.909,20.909c-2.121,10.909-1.516,18.939,1.818,24.242c3.333,5.303,8.484,8.485,15.303,9.546
		c5,0.909,9.697,0.151,13.939-2.273C1318.939,672.121,1322.575,668.03,1325.303,661.97 M1361.212,657.121
		c2.273-8.637,5.606-15.454,10.152-20.758c3.182-3.787,7.121-6.97,11.666-9.545c4.545-2.576,9.242-4.242,14.091-5
		c6.364-0.909,13.333-0.455,20.909,1.212c13.637,3.03,23.484,9.242,29.697,18.788c6.061,9.545,7.272,21.212,3.637,34.849
		c-3.637,13.636-10.606,23.484-20.91,29.242c-10.151,5.909-22.121,7.272-35.757,4.242c-13.788-3.03-23.637-9.242-29.849-18.788
		C1358.788,681.97,1357.575,670.454,1361.212,657.121 M1380.606,660.758c-2.576,9.545-1.971,17.424,1.515,23.484
		c3.485,5.909,8.939,9.697,16.515,11.364c7.425,1.666,14.243,0.605,20.304-3.183c6.061-3.787,10.454-10.605,13.182-20.454
		c2.576-9.546,2.121-17.272-1.212-23.182c-3.334-5.758-8.939-9.546-16.667-11.212c-7.728-1.667-14.545-0.758-20.606,3.03
		C1387.575,644.394,1383.333,651.061,1380.606,660.758 M1454.546,722.728l28.333-82.879l18.182,5l18.485,65.758l18.182-55.304
		l18.182,4.849l-28.788,82.879l-18.485-5.151l-18.484-64.395l-18.484,53.939L1454.546,722.728 M1546.818,749.091l33.333-81.363
		l60.606,20.454l-4.546,13.788l-43.939-14.546l-7.575,19.395l37.878,12.424l-6.061,13.788l-37.879-12.424L1565,755.151
		L1546.818,749.091 M1622.575,775l36.364-80.454l16.667,6.515l-34.849,80.455L1622.575,775 M1736.212,819.546l-19.697-7.879
		l1.516-21.061l-34.849-14.091l-15.151,15.151l-19.697-7.576l72.728-65.454l19.697,7.424L1736.212,819.546 M1719.546,775
		l1.515-34.242l-25.758,24.545L1719.546,775"/>
</g>
</svg>
