<?xml version="1.0" encoding="utf-8"?>
<!-- Generator: Adobe Illustrator 16.0.0, SVG Export Plug-In . SVG Version: 6.00 Build 0)  -->
<!DOCTYPE svg PUBLIC "-//W3C//DTD SVG 1.1//EN" "http://www.w3.org/Graphics/SVG/1.1/DTD/svg11.dtd">
<svg version="1.1" xmlns="http://www.w3.org/2000/svg" xmlns:xlink="http://www.w3.org/1999/xlink" x="0px" y="0px" width="1500px"
	 height="1050px" viewBox="0 0 1500 1050" enable-background="new 0 0 1500 1050" xml:space="preserve">
<g id="svg2" xmlns:dc="http://purl.org/dc/elements/1.1/" xmlns:cc="http://creativecommons.org/ns#" xmlns:rdf="http://www.w3.org/1999/02/22-rdf-syntax-ns#" xmlns:svg="http://www.w3.org/2000/svg" xmlns:sodipodi="http://sodipodi.sourceforge.net/DTD/sodipodi-0.dtd" xmlns:inkscape="http://www.inkscape.org/namespaces/inkscape" sodipodi:docname="Bandeira_de_Goiás.svg" inkscape:version="0.48.2 r9819" sodipodi:version="0.32">
	<rect id="rect1291" y="918.752" display="none" fill="#F3E718" width="1500.288" height="131.248"/>
	<rect id="rect1293" y="787.504" fill="#231F20" width="1500.042" height="131.248"/>
	<rect id="rect3571" y="131.265" display="none" fill="#F3E718" width="1499.858" height="131.248"/>
	<rect id="rect3575" y="656.256" display="none" fill="#F3E718" width="1500.118" height="131.248"/>
	<rect id="rect3577" x="514.5" y="0.017" fill="#231F20" width="985.618" height="131.248"/>
	<rect id="rect3579" x="520.235" y="262.513" fill="#231F20" width="979.884" height="131.248"/>
	<rect id="rect3581" y="525.009" fill="#231F20" width="1500.118" height="131.247"/>
	<path id="path4345" inkscape:connector-curvature="0" display="none" fill="#FFFFFF" d="M467.35,356.719l-49.161-35.872
		l-49.161,35.872l18.778-58.042l-49.161-35.872h60.767l18.777-58.042l18.778,58.042h60.767l-49.161,35.872L467.35,356.719z"/>
	<path id="path5105" inkscape:connector-curvature="0" display="none" fill="#FFFFFF" d="M467.35,172.971L418.188,137.1
		l-49.161,35.872l18.778-58.042l-49.161-35.872h60.767l18.777-58.042l18.778,58.042h60.767l-49.161,35.872L467.35,172.971z"/>
	<path id="path5107" inkscape:connector-curvature="0" display="none" fill="#FFFFFF" d="M153.708,172.971L104.547,137.1
		l-49.161,35.872l18.778-58.042L25.003,79.058H85.77l18.777-58.042l18.778,58.042h60.766l-49.161,35.872L153.708,172.971z"/>
	<path id="path5109" inkscape:connector-curvature="0" display="none" fill="#FFFFFF" d="M153.708,356.719l-49.161-35.872
		l-49.161,35.872l18.778-58.042l-49.161-35.872H85.77l18.777-58.042l18.778,58.042h60.766l-49.161,35.872L153.708,356.719z"/>
	<path id="path5111" inkscape:connector-curvature="0" display="none" fill="#FFFFFF" d="M298.239,247.856l-36.871-26.904
		l-36.871,26.904l14.083-43.531l-36.871-26.904h45.575l14.083-43.531l14.083,43.531h45.575l-36.871,26.904L298.239,247.856z"/>
</g>
<g id="Layer_2">
	<path fill="#231F20" d="M0,0.017h522.735v393.744H0V0.017z M25.003,262.805l49.161,35.872l-18.778,58.042l49.161-35.872
		l49.161,35.872l-18.777-58.042l49.161-35.872h-60.766l-18.778-58.042L85.77,262.805H25.003z M25.003,79.058l49.161,35.872
		l-18.778,58.042l49.161-35.872l49.161,35.872l-18.777-58.042l49.161-35.872h-60.766l-18.778-58.042L85.77,79.058H25.003z
		 M338.645,79.058l49.161,35.872l-18.778,58.042l49.161-35.872l49.161,35.872l-18.777-58.042l49.161-35.872h-60.766l-18.778-58.042
		l-18.777,58.042H338.645z M338.645,262.805l49.161,35.872l-18.778,58.042l49.161-35.872l49.161,35.872l-18.777-58.042
		l49.161-35.872h-60.766l-18.778-58.042l-18.777,58.042H338.645z M201.71,177.035l37.073,27.051l-14.161,43.77l37.073-27.052
		l37.073,27.052l-14.161-43.77l37.073-27.051h-45.824l-14.161-43.77l-14.16,43.77H201.71z"/>
</g>
</svg>
