<?xml version="1.0" encoding="utf-8"?>
<!-- Generator: Adobe Illustrator 16.0.0, SVG Export Plug-In . SVG Version: 6.00 Build 0)  -->
<!DOCTYPE svg PUBLIC "-//W3C//DTD SVG 1.1//EN" "http://www.w3.org/Graphics/SVG/1.1/DTD/svg11.dtd">
<svg version="1.1" xmlns="http://www.w3.org/2000/svg" xmlns:xlink="http://www.w3.org/1999/xlink" x="0px" y="0px" width="2000px"
	 height="1400px" viewBox="0 0 2000 1400" enable-background="new 0 0 2000 1400" xml:space="preserve">
<g id="Layer_1">
	<title>Bandeira de Mato Grosso</title>
	<path fill="#231F20" d="M0,0h2000v1400H0V0z M170,700l830,530l830-530l-830-530L170,700z"/>
</g>
<g id="Layer_2">
	<path fill="#231F20" d="M1000,350c193.3,0,350,156.7,350,350s-156.7,350-350,350S650,893.3,650,700S806.7,350,1000,350z
		 M794.275,983.156L1000,833.688l205.725,149.469l-78.579-241.845l205.725-149.468h-254.29L1000,350l-78.58,241.844H667.13
		l205.725,149.469L794.275,983.156z"/>
</g>
</svg>
