<?xml version="1.0" encoding="utf-8"?>
<!-- Generator: Adobe Illustrator 16.0.0, SVG Export Plug-In . SVG Version: 6.00 Build 0)  -->
<!DOCTYPE svg PUBLIC "-//W3C//DTD SVG 1.1//EN" "http://www.w3.org/Graphics/SVG/1.1/DTD/svg11.dtd">
<svg version="1.1" xmlns="http://www.w3.org/2000/svg" xmlns:xlink="http://www.w3.org/1999/xlink" x="0px" y="0px" width="600px"
	 height="420px" viewBox="0 0 600 420" enable-background="new 0 0 600 420" xml:space="preserve">
<g id="Layer_2">
</g>
<g id="Layer_1">
	<title>Bandeira de Minas Gerais</title>
	<path fill="#231F20" d="M300,93.446l59.928,103.857l59.928,103.857H300H180.145l59.928-103.857L300,93.446z"/>
	<path fill="#231F20" d="M191.826,260.278L170.75,248.09l0.762-1.27l1.016-1.523l18.537,10.664l6.094-10.664l1.27,0.762l1.27,0.762
		L191.826,260.278z M201.475,243.519l-21.076-12.188l0.762-1.27l1.016-1.523l21.076,12.188l-0.762,1.523L201.475,243.519z
		 M206.046,235.9l-21.076-12.188l0.762-1.524l4.571-7.872c1.016-1.777,2.286-2.793,3.809-3.555c1.523-0.508,3.047-0.254,4.571,0.508
		c1.777,1.016,2.793,2.539,3.047,4.316v1.27c0.762-0.508,1.27-0.762,2.031-1.27c1.777-0.762,3.555-0.508,5.333,0.508
		c2.031,1.016,3.047,2.54,3.555,4.571c0.254,2.031-0.254,4.317-1.524,6.603l-4.317,7.109L206.046,235.9z M189.033,222.188
		l6.602,3.81l2.793-5.079c1.016-1.523,1.27-2.793,1.27-3.81c-0.254-1.016-1.016-2.031-2.032-2.793
		c-1.016-0.508-2.031-0.508-3.047-0.254c-0.762,0.508-1.777,1.27-2.539,2.793L189.033,222.188z M197.92,227.268l7.364,4.316
		l3.301-5.84c1.016-1.523,1.27-3.048,1.016-4.063c0-1.27-0.762-2.031-2.286-2.793c-1.016-0.762-2.285-0.762-3.301-0.508
		c-1.016,0.508-2.031,1.777-2.793,3.301L197.92,227.268z M217.473,215.84l-21.076-12.188l8.888-15.49l1.27,0.762l1.27,0.762
		l-7.11,12.696l6.348,3.555l6.603-11.427l1.27,0.762l1.27,0.762l-6.602,11.427l7.11,4.062l7.364-12.696l1.27,0.762l1.27,0.762
		L217.473,215.84z M228.899,196.288l-21.076-12.188l0.762-1.523l4.825-8.38c1.27-2.285,2.793-3.555,4.57-4.317
		c1.524-0.508,3.301-0.254,5.079,0.762c2.031,1.016,3.047,2.54,3.301,4.317c0.254,0.508,0.254,1.016,0.254,1.524l0.508-0.508
		c1.523-0.762,3.047-0.762,4.825,0.254l3.809,2.031c0.762,0.508,1.27,0.508,1.523,0.508c0.508,0,0.762,0,1.27-0.254l0.508,0.254
		l-2.031,3.555c-0.254-0.254-0.762-0.254-1.523-0.762c-0.762-0.254-1.523-0.762-2.54-1.016l-1.777-1.016
		c-1.27-0.762-2.286-1.016-3.301-0.762c-0.762,0.254-1.777,1.27-2.539,2.539l-3.809,6.856l9.142,5.333l-1.016,1.27L228.899,196.288z
		 M218.997,186.639l4.063-7.11c0.762-1.27,1.016-2.285,0.762-3.301c-0.254-1.016-1.016-1.778-2.286-2.54
		c-1.016-0.762-2.285-0.762-3.047-0.508c-1.016,0.254-1.777,1.016-2.793,2.54l-3.809,6.856L218.997,186.639z M244.136,170.133
		l-18.791-10.919l-4.063,7.11l-1.27-0.508l-1.27-0.762l9.903-17.267l1.27,0.762l1.27,0.762l-4.063,7.11l18.537,10.665l-0.762,1.523
		L244.136,170.133z M250.229,159.214l-16.505-20.314l1.016-1.523l1.016-1.523l25.393,4.571l-0.762,1.523l-1.016,1.523l-7.364-1.523
		l-4.825,8.634l4.825,5.586l-0.762,1.523L250.229,159.214z M237.787,139.407l7.364,8.634l3.809-6.602L237.787,139.407z
		 M255.055,116.3c-1.27-0.762-2.793-0.762-3.809-0.254c-1.27,0.508-2.54,1.523-3.301,3.047c-1.016,1.523-1.27,3.047-1.27,4.317
		c0.254,1.016,0.762,2.031,2.031,2.793c0.762,0.508,1.523,0.508,2.286,0.254c0.762-0.508,1.777-1.27,3.047-2.793l3.047-3.047
		c1.777-1.777,3.047-2.793,4.571-3.047c1.523-0.508,3.047,0,4.571,1.016c2.031,1.016,3.047,2.539,3.301,4.571
		c0.254,2.285-0.254,4.57-1.777,7.11c-1.523,2.539-3.301,4.317-5.586,5.333c-2.032,0.762-4.317,0.508-6.602-0.762v-0.254l1.523-2.54
		c1.523,0.762,3.047,1.016,4.317,0.254c1.523-0.508,2.793-1.777,3.809-3.555c1.016-1.777,1.523-3.301,1.523-4.57
		c0-1.27-0.762-2.286-1.777-2.793c-1.016-0.762-2.032-0.762-2.793-0.508c-1.016,0.254-2.032,1.27-3.555,2.793l-3.047,3.301
		c-1.524,1.523-2.793,2.54-4.063,2.793c-1.27,0.254-2.54,0-4.063-0.762c-2.031-1.016-3.047-2.793-3.555-4.824
		c-0.254-2.032,0.254-4.317,1.523-6.603c1.27-2.285,3.047-3.809,5.079-4.57c2.031-0.762,4.063-0.508,6.094,0.508L255.055,116.3z"/>
	<path fill="#231F20" d="M250.229,335.695v-21.584h-8.125v-1.27v-1.523h19.807v1.523v1.27h-8.38v21.584h-1.523H250.229z
		 M262.926,335.695l9.142-24.377h1.777h2.032l8.633,24.377h-1.777h-1.778l-2.539-7.11h-9.649l-2.539,7.11h-1.778H262.926z
		 M273.845,314.873l-4.063,10.665h7.618L273.845,314.873z M290.604,335.695h-1.523h-1.523v-24.377h2.285h2.285l7.11,20.568
		l6.855-20.568h2.286h2.539v24.377h-1.523h-1.777v-20.568l-6.856,20.568h-1.523h-1.523l-7.11-20.568V335.695z M316.252,335.695
		v-24.377h17.774v1.523v1.27h-14.474v7.618h13.204v1.27v1.523h-13.204v8.126h14.728v1.523v1.523H316.252z M341.645,335.695h-1.523
		h-1.523v-24.377h2.031h2.031l12.188,19.807v-19.807h1.524h1.523v24.377h-1.777h-1.778l-12.696-20.061V335.695z"/>
	<path fill="#231F20" d="M331.741,132.043l0.762-4.825c-1.777-1.016-3.301-2.539-4.57-4.571c-1.778-3.047-2.286-6.094-1.271-9.141
		c1.017-3.047,3.048-5.587,6.349-7.618c3.302-1.777,6.603-2.539,9.649-1.777c3.301,0.762,5.586,2.539,7.364,5.586
		c1.777,3.047,2.285,6.348,1.27,9.396c-1.016,3.047-3.048,5.586-6.349,7.364c-3.301,2.031-6.602,2.539-9.648,1.777h-0.508v0.762
		c-0.254,2.286-0.509,3.301-0.509,3.301L331.741,132.043z M333.519,120.871l2.54,0.254l-0.762,3.809l0.508,0.254
		c2.285,0.254,4.824-0.254,7.363-1.523c2.539-1.524,4.316-3.555,5.078-5.841c0.763-2.031,0.509-4.316-0.762-6.602
		c-1.27-2.285-3.047-3.555-5.332-3.809c-2.285-0.508-4.824,0-7.363,1.524c-2.54,1.523-4.317,3.301-5.079,5.586
		c-0.762,2.285-0.508,4.571,0.762,6.602c0.508,1.27,1.523,2.286,2.539,2.793L333.519,120.871z M353.833,148.295
		c-2.793,1.523-5.078,1.777-7.618,1.27c-2.285-0.508-4.062-2.285-5.586-4.824c-1.523-2.793-2.031-5.079-1.523-7.364
		c0.762-2.285,2.285-4.317,5.078-5.84l13.205-7.618l1.016,1.27l0.762,1.523l-13.205,7.618c-2.031,1.27-3.047,2.539-3.555,4.062
		c-0.508,1.524-0.254,3.047,0.762,4.825c1.016,1.778,2.285,2.793,3.809,3.301c1.523,0.254,3.302-0.254,5.333-1.27l13.204-7.618
		l0.762,1.523l0.762,1.27L353.833,148.295z M355.103,168.609l6.095-3.555l-4.57-7.872l-7.364,1.016l-1.017-1.523l-0.762-1.523
		l26.155-3.555l4.063,7.364l6.602,11.427l-1.27,0.762l-1.27,0.762l-6.603-11.427l-6.349,3.809l6.095,10.411l-1.27,0.762l-1.27,0.762
		l-6.095-10.665l-7.109,4.062l6.855,11.935l-1.27,0.762l-1.27,0.762l-6.855-11.935L355.103,168.609z M372.116,154.897l-12.188,1.777
		l3.809,6.856l9.903-5.84L372.116,154.897z M392.685,199.081c1.27-1.016,2.031-2.031,2.285-3.301c0-1.523-0.254-2.793-1.016-4.317
		c-1.016-1.777-2.031-2.793-3.047-3.301c-1.271-0.508-2.286-0.254-3.556,0.508c-0.762,0.254-1.27,1.016-1.27,1.777
		c-0.254,0.762,0,2.032,0.762,4.063l1.016,4.063c0.762,2.285,1.016,4.062,0.508,5.586c-0.508,1.27-1.523,2.539-3.047,3.301
		c-2.031,1.27-4.062,1.27-5.84,0.508c-2.031-0.762-3.81-2.286-5.079-4.825c-1.777-2.793-2.285-5.333-1.777-7.618
		c0.254-2.285,1.523-4.063,3.809-5.333h0.255l1.523,2.54c-1.523,1.016-2.54,2.285-2.794,3.809c0,1.524,0.254,3.301,1.524,5.079
		c1.016,1.778,2.031,3.047,3.047,3.555c1.27,0.508,2.285,0.508,3.555-0.254c1.016-0.508,1.523-1.27,1.777-2.286
		c0-0.762-0.254-2.285-0.762-4.316l-1.27-4.063c-0.762-2.286-0.762-3.809-0.508-5.079s1.27-2.285,2.539-3.047
		c2.031-1.27,4.062-1.524,6.095-0.762c2.031,0.762,3.555,2.286,4.824,4.571c1.524,2.286,2.032,4.571,1.524,6.602
		c-0.255,2.032-1.524,3.809-3.556,5.079L392.685,199.081z M381.766,214.824l21.076-12.188l8.888,15.49l-1.271,0.508l-1.27,0.762
		l-7.109-12.443l-6.603,3.555l6.856,11.681l-1.27,0.762l-1.27,0.508l-6.856-11.427l-6.856,4.062l7.364,12.697l-1.27,0.762
		l-1.27,0.762L381.766,214.824z M393.192,234.377l21.076-12.188l0.762,1.524l4.825,8.379c1.27,2.285,1.777,4.316,1.523,5.84
		c-0.254,1.778-1.27,3.302-3.302,4.317c-1.777,1.016-3.555,1.27-5.332,0.762c-0.508-0.254-0.762-0.508-1.271-0.762v0.762
		c0,1.523-0.762,3.048-2.539,4.063l-3.809,2.285c-0.508,0.508-1.016,0.762-1.016,1.016c-0.254,0.254-0.508,0.762-0.254,1.27
		l-0.508,0.254l-2.031-3.555c0,0,0.508-0.508,1.27-1.016c0.508-0.508,1.27-1.016,2.285-1.523l1.523-1.016
		c1.27-0.763,2.031-1.524,2.285-2.54s0-2.031-0.762-3.555l-4.062-6.603l-9.142,5.078l-0.762-1.27L393.192,234.377z M406.396,230.568
		l4.062,7.109c0.762,1.271,1.524,2.032,2.54,2.286c1.016,0.508,2.031,0.254,3.301-0.508s2.031-1.524,2.031-2.54
		c0.255-1.016,0-2.285-0.762-3.555l-4.062-6.855L406.396,230.568z M404.111,253.422l25.9-4.062l0.763,1.523l1.016,1.777
		l-16.76,19.553l-0.762-1.523l-1.016-1.523l4.824-5.587l-4.824-8.38l-7.364,1.27l-0.762-1.523L404.111,253.422z M427.727,252.66
		l-11.427,2.031l3.81,6.603L427.727,252.66z"/>
</g>
</svg>
