<?xml version="1.0" encoding="utf-8"?>
<!-- Generator: Adobe Illustrator 16.0.0, SVG Export Plug-In . SVG Version: 6.00 Build 0)  -->
<!DOCTYPE svg PUBLIC "-//W3C//DTD SVG 1.1//EN" "http://www.w3.org/Graphics/SVG/1.1/DTD/svg11.dtd">
<svg version="1.1" id="Layer_1" xmlns="http://www.w3.org/2000/svg" xmlns:xlink="http://www.w3.org/1999/xlink" x="0px" y="0px"
	 width="2000px" height="1400px" viewBox="0 0 2000 1400" enable-background="new 0 0 2000 1400" xml:space="preserve">
<rect width="666.667" height="1400"/>
<path id="NEGO" fill="#231F20" d="M1083.333,763.333V637h26l52,84.333V637h22v126.333h-24l-52-82.333v82.333H1083.333z
	 M1211.333,763.333V637h94v21.333h-68v28h62v21.334h-62V742h70v21.333H1211.333z M1387.333,716.667v-21h56V746
	c-6,5-14,9.667-24,13.667c-10,3.666-20,5.666-30,5.666c-14,0-26-2.666-36-8.333c-8-5.333-16-13.333-22-23.667
	c-4-10.333-6-21.666-6-33.666c0-13,2-24.667,8-35c6-10.334,14-18,24-23.667c8-4,18-6,30-6c16,0,28,3,36,9.667
	c10,6.666,16,15.666,18,27.333l-26,4.667c-2-6-4-11-10-14.667c-4-3.667-10-5.333-18-5.333c-12,0-20,3.333-26,10.333
	c-8,7.333-10,17.667-10,31.667c0,15,2,26.333,10,33.666c6,7.667,14,11.334,26,11.334c6,0,10-1,16-3c6-2.334,10-5,14-7.667v-16.333
	H1387.333z M1461.333,701c0-13,2-23.667,6-32.333c2-6.667,6-12.334,12-17.667c4-5,10-8.667,16-11c8-3.333,16-5,26-5
	c20,0,34,5.667,46,17c10,11.667,16,27.667,16,48.333c0,20.334-6,36.334-16,47.667c-12,11.667-26,17.333-44,17.333
	c-20,0-34-5.666-46-17.333C1467.333,736.667,1461.333,721,1461.333,701z M1487.333,700c0,14.333,4,25,10,32.667c6,7.333,14,11,24,11
	c12,0,20-3.667,26-11c6-7.334,10-18.334,10-33c0-14.667-4-25.334-10-32.334c-6-7.333-14-10.666-26-10.666c-10,0-18,3.333-24,11
	C1491.333,674.667,1487.333,685.667,1487.333,700z"/>
</svg>
