<?xml version="1.0" encoding="utf-8"?>
<!-- Generator: Adobe Illustrator 16.0.0, SVG Export Plug-In . SVG Version: 6.00 Build 0)  -->
<!DOCTYPE svg PUBLIC "-//W3C//DTD SVG 1.1//EN" "http://www.w3.org/Graphics/SVG/1.1/DTD/svg11.dtd">
<svg version="1.1" xmlns="http://www.w3.org/2000/svg" xmlns:xlink="http://www.w3.org/1999/xlink" x="0px" y="0px" width="2000px"
	 height="1400px" viewBox="0 0 2000 1400" enable-background="new 0 0 2000 1400" xml:space="preserve">
<g id="svg2619" xmlns:dc="http://purl.org/dc/elements/1.1/" xmlns:cc="http://web.resource.org/cc/" xmlns:rdf="http://www.w3.org/1999/02/22-rdf-syntax-ns#" xmlns:svg="http://www.w3.org/2000/svg" xmlns:sodipodi="http://sodipodi.sourceforge.net/DTD/sodipodi-0.dtd" xmlns:inkscape="http://www.inkscape.org/namespaces/inkscape" sodipodi:docname="flag paraná2.svg" sodipodi:docbase="C:\Documents and Settings\Franklin\Meus documentos\Wiki" inkscape:version="0.44.1" sodipodi:version="0.32">
	<path id="path35" fill="#231F20" d="M1188.64,590.994l6.497-6.844l8.553,2.906l-10.224,5.577L1188.64,590.994z M1097.866,608.565
		l11.378-40.446l7.95,2.235l8.957,31.671l7.602-27.006l7.59,2.137l-11.385,40.445l-8.198-2.31l-8.882-30.962l-7.422,26.372
		L1097.866,608.565z M1199.255,641.515l-8.751-2.969l-0.404-10.224l-15.906-5.397l-6.348,7.932l-8.521-2.894l29.005-34.527
		l8.497,2.882L1199.255,641.515z M1189.802,620.751l-0.472-16.627l-10.386,12.944L1189.802,620.751z M1070.829,600.118l-9.137-1.372
		l-2.205-9.987l-16.614-2.503l-4.845,8.931l-8.9-1.342l22.435-39.116l8.876,1.335L1070.829,600.118z M1057.849,581.354l-3.41-16.279
		l-7.926,14.578L1057.849,581.354z M968.117,585.634l4.192-41.807l17.77,1.783c4.473,0.447,7.677,1.154,9.627,2.105
		c1.944,0.95,3.436,2.447,4.466,4.484c1.019,2.05,1.404,4.298,1.155,6.77c-0.311,3.137-1.496,5.646-3.54,7.509
		c-2.044,1.846-4.938,2.864-8.658,3.025c1.721,1.248,3.112,2.565,4.174,3.963c1.056,1.397,2.429,3.813,4.118,7.267l4.292,8.671
		l-10.093-1.013l-5.193-9.708c-1.844-3.478-3.117-5.664-3.832-6.596c-0.714-0.925-1.503-1.584-2.366-1.994
		c-0.869-0.403-2.261-0.701-4.211-0.888l-1.702-0.181l-1.745,17.46L968.117,585.634z M978.986,562.355l6.236,0.62
		c4.049,0.404,6.602,0.491,7.646,0.256c1.037-0.243,1.888-0.759,2.547-1.535c0.646-0.782,1.043-1.795,1.167-3.05
		c0.144-1.409-0.124-2.577-0.788-3.521c-0.665-0.938-1.671-1.591-3.02-1.963c-0.67-0.155-2.72-0.41-6.148-0.752l-6.584-0.658
		L978.986,562.355z M936.739,582.38l-9.218-0.603l-3.037-9.764l-16.764-1.094l-4.074,9.305l-8.981-0.584l19.056-40.863l8.956,0.578
		L936.739,582.38z M922.229,564.777l-4.77-15.938l-6.677,15.192L922.229,564.777z M836.244,578.324l0.534-42.019l13.603,0.174
		c5.155,0.062,8.521,0.323,10.08,0.765c2.397,0.658,4.403,2.05,6,4.18c1.597,2.137,2.379,4.876,2.335,8.211
		c-0.03,2.584-0.527,4.745-1.49,6.484c-0.963,1.751-2.161,3.118-3.621,4.105c-1.453,0.981-2.926,1.627-4.422,1.932
		c-2.025,0.372-4.963,0.547-8.813,0.497l-5.522-0.068l-0.198,15.845L836.244,578.324z M845.17,543.529l-0.155,11.913l4.639,0.056
		c3.349,0.043,5.591-0.143,6.721-0.571c1.131-0.422,2.019-1.1,2.677-2.031c0.646-0.932,0.988-2.013,1-3.255
		c0.019-1.521-0.416-2.794-1.304-3.801c-0.876-1-2.013-1.64-3.379-1.9c-1.013-0.211-3.05-0.323-6.105-0.36L845.17,543.529z"/>
	<path id="path31" fill="#231F20" d="M717.11,914.099c-0.708,1.268-0.708,1.268-0.479,4.628c0.808,0.254,1.615,0.509,2.708,1.05
		c3.13,7.161,6.479,13.688,8.335,21.54c3.479,0.701,5.286,3.956,8.646,2.826c-0.373-5.498-2.727-9.025-3.603-14.181
		c-0.528,0.037-1.056,0.068-1.578,0.1c-2.658-4.118-5.03-7.956-7.409-11.788c-0.951-2.392-1.646-4.802-2.317-6.901
		c-0.187-2.745-0.105-5.509-0.03-8.273c-0.808-0.254-1.354-0.527-1.883-0.496c-2.44-8.732-0.912-17.409-4.938-26.043
		c4.695-16.547-15.298-26.925-17.993-0.392c1.093,0.541,2.447,1.068,3.808,1.597c4.285,12.596,2.851,14.838-7.261,17.62
		c-0.485,0.646-0.976,1.292-1.192,1.92c-8.752-4.354-10.224-14.373-3.205-20.031c3.422-11.863,2.913-15.509,10.813-23.67
		c-0.124-1.832-0.224-3.36-0.329-4.882c-15.192-5.782-18.236,15.559-16.578,28.328c-0.788,0.05-1.316,0.081-1.844,0.118
		c-2.783,9.677-10.863,3.447-16.05,1.013c-1.466-6.037-1.466-6.037-1.149-9.118c11.311-4.701,12.745-6.938,18.479-19.869
		c2.77-2.012,5.577-3.422,7.192-6.895c-4.137-6.478-20.05-7.311-26.764-5.043c-0.311-0.596-0.348-1.205-0.392-1.813
		c-6.316,0.397-12.366,0.782-18.416,1.161c0.038,0.615,0.081,1.224,0.144,2.144c-8.242-0.709-15.167-5.479-22.583-9.603
		c-3.181-0.105-6.075,0.074-8.969,0.261c-1.876-8.155-11.05-14.932-16.441-20.416c-1.285-7.272-10.707-25.372-6.099-31.489
		c-2.311-2.92-2.311-2.92-5.329-4.565c-1.453-9.714,2.49-13.95,8.211-19.218c-1-3-1.733-6.018-2.441-8.732
		c0.441-1.255,1.149-2.527,1.876-3.49c4.732-0.305,8.019,1.329,12.795,1.64c-0.062-0.919-0.105-1.528-0.144-2.137
		c7.976,0.721,13.131,10.509,19.621,4.888c-0.963-6.379-1.634-12.465-2.311-18.552c2-1.658,4-3.317,6-4.981
		c-1.043-11.577-1.932-20.72-8.863-29.472c-16.422-0.497-8.553,21.994-10.217,32.521c-10.534,8.335-12.111,8.435-22.05-1.665
		c1.373-3.155,2.765-6,4.162-8.844c10.521-0.671,11.161-6.839,13.329-17.708c0.527-0.031,1.056-0.062,1.583-0.1
		c-0.062-0.913-0.105-1.521-0.143-2.136c0.521-0.032,1.05-0.069,1.839-0.119c0.764-4.335,4.403-5.18,7.416-7.515
		c-0.1-1.528-0.205-3.057-0.286-4.273c-14.161-6.155-23.124,9.739-34.738,13.851c-2.956-0.733-5.913-1.466-8.584-1.907
		c-2.261-9.975-4.447-11.062,3.397-16.155c6.578-0.415,12.006,1.69,18.056,1.306c6.273-4.994,14.204-4.889,21.614-4.739
		c9.1-6.1-16.577-14.584-17.938-15.112c-4.453-3.396-4.453-3.396-17.602-10.223c-9.82-0.603-16.466-5.087-19.316-15.938
		c-0.808-0.255-1.354-0.528-1.882-0.497c-0.062-0.913-0.106-1.521-0.144-2.137c-5.819-3.919-5.174-6.105-5.143-13.466
		c-3.242-5.006-5.168-6.111-6.372-12.161c0.509-0.341,1.012-0.677,1.782-1.037c-0.366-1.503-0.732-3.012-1.1-4.521
		c-9.807-4.285-6.602-27.168-7.564-37.527c1.329-3.764,7.08-4.745,10.13-6.472c2.913-3.856,2.913-3.856,4.969-8.59
		c6.577-0.416,13.403,2.832,20.553,2.993c0.509,3.646,3.311,21.547,9.453,14.721c-0.075-8.882-0.913-13.428,6.534-16.658
		c-0.541-7.932-4.957-10.721-8.305-17.248c-3.764-0.987-3.764-0.987-8.987-0.043c-3.925-11.094-1.9-12.447,7.403-15.49
		c2.473,1.379,4.969,3.056,7.721,4.72c2.236,5.683,1.031,11.279,4.826,16.553c1.273-0.689,2.807-1.403,4.348-2.112
		c0.198-0.932,0.422-1.559,0.646-2.186c0.522-0.038,1.05-0.069,1.578-0.1c-0.981-6.684-1.187-21.385-4.957-26.354
		c1.155-10.186,1.155-10.186,2.976-14.597c4.714-0.603,8.217,0.397,11.844,3.236c0.249,3.658,0.516,7.628,0.783,11.596
		c-8.285,6.349-6.963,10.249-5.652,21.813c-0.527,0.031-1.056,0.068-1.584,0.1c0.05,4.597,0.05,4.597,1.025,7.292
		c1.863,0.187,7.379,0.987,9.261,1.478c7.44-7.211,9.614-18.08,19.77-20.254c-0.348-1.205-4.342-3.019-4.671-3.919
		c-2.627,0.168-1-0.776-3.614-0.305c-0.007-3.981-4.261-2.869-3.379-5.379c8.099-1.435,18.589,1.273,15.428,13.125
		c-5.521,4.329-11.738,2.272-16.527,9.626c-1.024,4.354-2.031,9.02-2.771,13.658c2.981,5.025,7.125,15.49,13.441,15.093
		c0.304,0.591,0.895,1.473,1.478,2.354c0.528-0.031,1.057-0.068,1.845-0.118c1.504,6.652,3.279,13.279,5.068,20.217
		c5.708,2.397,5.708,2.397,7.174,4.447c8.695-4.229-1.981-9.683-5.124-13.161c-0.41-6.105-0.565-12.224-0.714-18.341
		c3.943-4.236,6.465-9.913,12.863-9.094c18.801,12.292,17.602,10.224,18.428,34.08c1.571,7.565,3.621,14.484-2.95,18.882
		c-1.062,7.733,2.739,5.342,1.863,11.839c-0.528,0.03-1.056,0.068-1.584,0.099c-4.229,15.596-15.298,31.621-27.13,40.341
		c-2.646,3.845-2.646,3.845-4.18,4.553c0.043,0.615,0.08,1.224,0.124,1.832c-2.305,1.068-4.348,2.118-6.392,3.168
		c-4.428,16.521,6.131,12.484,15.373,8.521c4.416-12.845,9.658-13.484,21.08-8.689c1,3,2.254,5.987,3.534,9.279
		c-6.354,15.422-26.813,2.007-37.087,10.316c-4,7.305-2.285,17.006,1.895,24.093c11,6.354,21.111,15.217,30.571,2.665
		c1.111-3.137,2.217-6.273,3.348-9.1c7.366-0.472,28.62,12.895,33.589,19.938c1.783,14.596,8.224,31.658,17.105,41.825
		c1.279,3.292,1.987,6.006,1.715,9.702c-7.789,17.651-17.484,34.515-17.963,54.774c1.845-0.118,3.95-0.248,6.056-0.385
		c-0.087-1.217-0.149-2.137-0.211-3.05c0.528-0.037,1.056-0.068,1.845-0.118c0.516-8,3.217-14.918,9.348-18.062
		c0.037,0.609,0.08,1.218,0.143,2.137c3.441,0.087,3.441,0.087,9.981,3.043c3.845,9.87-2.292,9.031-3.416,15.852
		c-15.521,0.981-14.49,0.608-21.516,17.912c1.118,16.478,19.372,1.224,24.577,15.608c1.013-0.677,2.286-1.372,3.56-2.068
		c2.583-8.745,14.856-3.087,19.186-17.154c1.826-0.423,15.938,5.124,24.745,6.403c7.192,4.751,5.938,17.396,16.428,20.105
		c0.342,1.205,0.689,2.409,1.056,3.919c0.528-0.037,1.057-0.068,1.845-0.118c0.87,1.174,1.765,2.646,2.658,4.124
		c8.808,5.267,6.963,17.031,16.745,21.006c1.162,5.44,0.118,9.496,0.752,14.969c4.826,4.906,2.603,7.192,2.248,13.652
		c6.025,10.962-1.658,18.496-6.521,28.613c0.174,6.423,0.081,12.87-1.087,19.068c2.149,0.478,4.987,3.366,11.024,6.658
		c3.907-0.857,8.075-1.733,12.242-2.615c3.54,1.615,3.54,1.615,11.521,2.336c7.435-7.218,19.596,0.596,24.832-4.025
		c-0.087-1.224-0.144-2.137-0.212-3.049c-2.248-2.007-4.496-4.007-6.726-5.709c-0.473-7.018,0.956-13.241,1.006-20.291
		c7.845-5.093,9.695-1.229,17.688-0.205c7.447-14.875,20.826-0.702,29.727,5.782c17.372,2.883,15.764,10.342,27.396,22.168
		c10.832,3.913,9.832,8.571,11.994,21c1.701,1.732,1.701,1.732,7.856,2.875c7.745,9.013,15.565-0.372,21.9,11.18
		c1.1,4.528,1.1,4.528,0.292,8.255c-11.627,7.788-12.721,22.875-0.869,30.093c14.316,0.627,28.223,3.117,42.353,0.993
		c0.037,0.615,0.081,1.224,0.118,1.832c4.578,1.242,4.578,1.242,16.44,0.802c6.484,2.037,12.981,4.385,19.745,6.714
		c15-0.95,29.26-8.906,43.85-11.975c5.56-3.727,9.137-9.466,2.168-14.851c-1.957-5.392-3.882-10.484-5.813-15.571
		c2.416-7.198,2.976-14.596,7.037-20.981c1.05-3.515,3.993-8.335,5.081-12.614c1.813-7.124,2.267-13.484,8.099-15.192
		c1.224,6.36,3.795,9.261,7.044,14.267c0.751,3.323,1.521,6.951,2.564,10.565c0.521-0.037,1.05-0.068,1.839-0.118
		c0.124,1.833,0.273,3.969,0.677,6.087c5.963,10.043-1.459,13.577-2.721,22.242c0.044,0.608,0.081,1.217,0.125,1.832
		c-3.013,2.335-5.746,4.962-8.473,7.584c0.715,2.714,0.715,2.714,2.678,4.428c3.074-1.422,3.9-4.845,7.521-5.993
		c0.385-2.168,1.031-4.354,1.671-6.54c0.77-0.36,1.54-0.714,2.571-1.087c0.117-2.149,0.496-4.323,0.9-6.187
		c17.516-10.615,26.677-4.143,10.186-25.167c0.572-6.124,6.336-12.584,9.105-18.782c3.926-8.782,5.397-17.272,8.242-25.533
		c1.316-0.081,2.634-0.168,4.211-0.268c5.255,7.329,5.255,7.329,7.429,12.099c0.521-0.037,1.05-0.067,1.839-0.117
		c0.453,6.714,3.049,9.919,6.056,15.248c-0.056,3.068-0.093,6.44,0.13,9.801c-6.124,3.143-16.639,11.782-18.757,19.577
		c13.167,3.149,14.825-10.813,25.086-15.446c-0.067-0.92-0.105-1.528-0.148-2.138c3.074-1.422,17.453-6.596,18.217-10.938
		c0.528-0.037,1.056-0.067,1.845-0.117c-0.597-4.864-3.49-10.161-3.801-14.739c-5.484-10.689-0.1-15.037,4.478-25.44
		c6.976-6.268,7.621-18.235,15.944-20.298c1.67,9.093,8.235,16.335,11.223,25.341c-8.068,1.739-9.621,6.131-11.633,15.453
		c-3.037,2.031-5.299,3.708-6.913,7.181c0.59,0.882,1.435,1.745,2.292,2.614c4.019-3.013,5.559-3.727,6.764-9.322
		c5.603-3.111,7.062-5.044,10.068-11.36c2.875-0.491,8.379-1.149,9.161-5.18c12.403-4.161,16.453-2.882,16.776-17.615
		c-3.044-5.938-3.044-5.938-4.777-11.962c-0.521,0.037-1.049,0.068-1.577,0.1c-0.081-1.218-0.143-2.131-0.205-3.05
		c0.528-0.031,1.056-0.062,1.578-0.1c0.634-10.155,6.739-17.59,7.087-28.037c0.527-0.03,1.049-0.062,1.577-0.1
		c1.105-7.117,3.298-13.694,10.559-8.023c8.366,22.154,8.366,22.154,10.764,26.291c9.819,0.603,14.229-0.596,21.95-7.521
		c-0.473-7.019-8.826-17.217-13.813-20.577c0.192-8.907,3.198-15.224,5.839-23.056c0.577-7.087,1.819-16.056,7.646-19.795
		c7.559,6.267,12.453,16.068,14.975,26.024c6.907,4.466,21.969-11.205,23.174-16.794c-7.521-9.64-13.124-16.64-14.031-30.068
		c3.435-33.186,6.161-25.546,11.863-17.614c4.478,6.472,18.596,14.105,17.416,18.323c-8.118,0.701-9.044,14.552-7.528,22.434
		c1.521-1.019,3.299-2.05,5.081-3.081c1.36-6.304,5.813-12.515,5.664-18.701l5.131-8.466c5.571-1.403,5.701-6.479,2.64-16.291
		c-4.149-2.802-8.037-5.621-11.932-8.435c-3.397-11.131-3.59-33.49-0.932-44.999c1.031-0.373,2.323-0.765,3.64-0.845
		c5.211,6.721,10.429,13.44,15.919,20.446c0.702,10.379-1.46,13.577,3.453,23.689c5-0.317,2.776-13.664,2.51-17.634
		c12.509-14.279,12.509-14.279,13.639-17.105c-6.242-6.347-14.969-6.409-20.527-14.334c-2.198-9.056-10.18-25.404-5.453-33.677
		c11.578-0.733,16.708,4.764,25.95,12.459c5.099,12.851,16.03-12.975,17.646-16.447c-0.721-10.683-19.633-12.856-25.875-19.198
		c-3.007-9.315-6.019-18.626-9.025-27.937c7.236-6.279,7.863-4.789,15.889,0.528c12.154,3.825,17.478,4.409,18.043,20.614
		c1.627,4.496,1.813,3.975,3.72,8.758c-0.379,2.167-0.497,4.322-0.596,6.775c0.851,0.869,1.702,1.733,2.571,2.907
		c1.1,0.54,0.254-2.845,1.366-1.994c2.528-1.695,3.876-0.826,3.385-4.161c-0.546-0.273-0.329-2.708-0.856-2.677
		c-1.746-6.323-0.541-6.503-0.467-13.249c-0.788,0.05-1.316,0.081-1.838,0.112c-0.646-9.46,0.838-9.248,5.279-17.801
		c-1.285-7.279-2.54-6.279-7.845-6.553c-0.062-0.919-0.105-1.528-0.143-2.137c-8.286-5.298-8.286-5.298-22.732-11.738
		c-1.969-5.702-2-10.161-2.677-16.249c0.527-0.03-0.081-1.05,0.714-1.1c-0.944-6.067-2.323-10.888-2.516-17.62
		c3.416-0.217,4.249,0.348,7.534,1.976c0.037,0.608,0.081,1.223,0.143,2.137c9.236,3.708,17.479,4.409,24.895,12.521
		c0.316,8.565-1.367,18.789,3.845,25.503c1.292-0.385,2.608-0.473,4.186-0.571c0.224-0.628,0.708-1.273,1.193-1.913
		c-1.404-16.77-6.075-31.186,6.882-42.738c-2.131-4.148-16.926-4.136-22.745-8.056c-8.944,0.565-8.603-2.218-11.373-11.844
		c-0.521,0.03-1.049,0.062-1.577,0.099c-2.268-6.192-10.484-14.354-10.981-21.683c12.919-4.771,22.534,1.024,32.391,2.242
		c3.397-4.51,4.484-7.95,6.199-13.882c9.603-6.435-1.187-21.379,14.192-24.502c4.311,12.906,8.639,26.117,12.968,39.334
		c0.776,1.025,0.876,3.429,2.181,3.826c8,2.416,25.154-5.9,32.527-7.689c0.615,1.192,1.826,0.932,2.701,2.1
		c-7.801,9.695-12.186,15.18-15.832,27.67c-3.826,2.087-7.646,4.167-11.204,6.229c-12.832,1.733-21.429,7.49-17.577,25.329
		c-5.504,0.658-3.541,2.372-3.689,7.895c-3.559,6.049-9.316,10.708-4.59,18.067c10.223,2.311,9.614-18.844,14.453-24.515
		c-0.037-0.608-0.081-1.224-0.118-1.832c1.006-0.678,2.037-1.05,3.335-1.436c-0.043-0.614-0.08-1.224-0.124-1.832
		c4.59-2.435,17.938-12.174,22.515-10.932c2.789,9.938-8.812,25.999-12.055,36.627c-9.584,6.738-22.64,9.1-29.08,19.316
		c0.732,3.019,1.465,6.037,2.198,9.056c0.528-0.038,1.056-0.068,1.577-0.1c0.044,0.608,0.087,1.218,0.149,2.137
		c8.46,0.074,20.931,0.819,27.969-4.534c1.577-0.1,3.155-0.199,4.757,0.006c0.118,1.833,0.51,3.646,0.895,5.46
		c-2.807,5.385-6.322,8.062-10.851,11.416c-8.851,13.738-8.851,13.738-11.093,15.72c-13.031,2.665-28.969-2.453-27.67,16.776
		c2.174,4.764,4.366,9.839,6.559,14.906c7.087-0.752,17.975-3.894,25.559-4.993c0.832,12.211-14.739,24.229-22.484,30.856
		c-21.191,3.18-24.434-1.826-27.154,20.415c0.869,1.168,1.739,2.342,2.875,3.497c4.436-0.895,6.963-2.59,10.746-5.279
		c6.819-0.739,13.639-1.479,20.726-2.236c0.348,5.193-3.856,9.441-6.825,12.385c-4.205,19.888-28.329,22.646-43.385,26.665
		c0.043,0.608,0.081,1.217,0.124,1.832c-8.093,1.428-8.03,2.348-8.446,11.869c-4.721,8.272-24.056,19.304-21.472,30.173
		c7.894-0.497,14.397-9.801,18.111-17.391c9.348-2.429,21.104-4.404,30.365-0.392c0.187,2.745,0.044,4.596-1.124,6.813
		c-9.366,6.111-17.068,13.342-25.646,19.403c-8.943,0.565-17.888,1.137-26.571,1.684c-3.943,4.235-6.086,19.26-4.583,25.912
		c9.03,0.652,19.31-3.547,27.515,0.528c0.062,0.913,0.143,2.137,0.491,3.342c-2.708,2.925-5.397,6.161-7.82,9.385
		c-12.745,6.938-15.589,15.701-31.931,12.44c-11.633,3.807-20.428-5.137-28.143,9.758c0.416,6.105-0.205,12.577,3.286,17.26
		c6.9,0.484,13.807,0.963,20.708,1.447c0.043,0.609,0.086,1.218,0.148,2.137c0.521-0.037,1.05-0.068,1.578-0.1
		c0.062,0.914,0.124,1.826,0.204,3.05c-2.832,1.1-5.64,2.503-8.192,3.895c-11.099,7.751-23.614,18.043-36.775,18.882
		c-10.49-2.708-21.322-6.615-31.639-2.901c-9.745,8.28-16.155,15.125-27.851,18.013c-2.466,2.608-4.447,4.571-7.825,5.397
		c0.08,1.224,0.167,2.447,0.267,3.969c3.36-1.131,5.18-1.553,8.95-0.565c13.204-7.888,21.459-10.862,36.023-2.59
		c3.423-0.217,6.82-0.739,9.199,3.093c-1.025,8.342-32.683,20.771-40.98,23.137c-10.92-5.13-18.236-11.721-29.993-9.745
		c-3.782,2.689-7.174,7.198-12.956,11.546c-4.149,1.187-15.969,2.236-17.36,9.068c-3.112,0.813-11.366,3.788-8.627,9.13
		c2.608-0.472,5.224-0.944,8.118-1.124c0.396-1.869,2.564-3.845,2.969-5.708c3.372-0.826,5.012-1.235,8.676-1.776
		c10.578-7.721,26.379,3.23,37.658,5.888c0.043,0.609,0.087,1.224,0.149,2.138c2.646,0.136,2.646,0.136,3.279,1.633
		c-7.423,3.534-14.546,7.665-22.702,8.181c-13.533,6.986-18.123,9.422-32.303,2.968c-13.521-0.677-18.305-4.968-22.758,11.249
		c-11.788,5.348-19.254-3.373-30.59,8.683c0.852,0.864,1.703,1.733,2.572,2.9c10.26-0.646,22.993,3.634,29.173-6.564
		c3.019,1.646,6.385,0.943,9.429,2.894c11.571-0.732,23.812,8.299,35.396,11.547c0.062,0.919,0.143,2.143,0.224,3.36
		c-8.614,1.466-18.329,6.372-25.931,11.149c-6.783,1.347-21.49,6.57-24.789,8.614c-12.285-1.976-19.409-13.479-30.104-19.236
		c-5.745-10.67-14.043-12.291-23.651-5.856c-2.628,0.168-5.242,0.64-7.852,1.111c-0.062-0.919-0.105-1.527-0.143-2.137
		c-7.366,4.447-13.943,4.863-13.279,14.634c8.323,5.906,21.584,18.248,30.695,20.124c0.037,0.608,0.081,1.217,0.143,2.136
		c5.262-0.335,14.323,8.591,18.764,11.684c10.695,5.757,21.652,11.497,32.614,17.241c0.037,0.609,0.1,1.521,0.161,2.441
		c-1.832,2.441-4.869,3.64-5.608,3.479c-0.447-0.094,1.199-1.006,0.882-1.528c-0.509-0.839-0.987-1.987-1.851-2.658
		c-1.044-0.813-3.316-1.068-3.422-2.646c-8.019-1.33-25.603-7.261-31.9,1.105c3.956,7.72,16.292,5.154,23.298,7.168
		c4.981-0.628,10.875-2.685,11.727-1.82c-4.36,5.795-24.168,2.851-29.732,2.596c-19.732-10.397-31.863-29.552-51.657-40.862
		c-5.211-6.72-13.392-10.497-20.546-14.639c-9.571,3.062-19.466,5.217-26.577,13.334c-16.403,7.473-33.316,19.273-42.701,36.727
		c-6.509,5.316-55.844,18.254-52.974-1.852c5-0.316,9.527-3.658,12.98-7.247c7.752-2.635,13.105-9.423,19.9-14.454
		c-0.043-0.608-0.087-1.218,0.137-1.845c7.366-0.472,12.298-5.689,19.608-7.067c16.019-9.292,16.019-9.292,24.285-15.95
		c8.825-2.397,8.825-2.397,21.608-8.721c-0.125-1.832-0.249-3.665-0.354-5.192c-28.278-4.031-28.278-4.031-31.297-5.677
		c-8.075,1.739-25.037,4.957-32.509-0.087c-8.684,0.553-7.36,8.44-3.727,15.261c4.379,2.174,8.77,4.652,13.428,7.111
		c0.889,13.124-7.037,13.627-15.727,10.192c-1.651-8.782-4.204-19.651-8.664-27.03c-1.845,0.118-3.684,0.229-5.267,0.329
		c-3.323,9.409,1.503,18.298-4.311,26.024c-13.18,0.527-13.18,0.527-14.819-0.286c-3.665-15.099,12.975-15.229,12.062-28.657
		c-10.521,0.664-16.466,6.559-23.845,14.689c-13.409,4.832-27.297,6.633-41.607,6.012c-8.466-4.062-13.273-8.664-22.745-8.062
		c-5.087-4.889-6.59-7.553-13.056-13.273c-8.385-2.839-11.664-4.472-15.18-13.44c-4.478-3.702-12.111-7.205-13.863-13.528
		c3.758-6.981-2.751-13.31-0.093-20.838c1.273-0.689,2.832-1.099,4.392-1.503c0.043,0.608,0.08,1.224,0.148,2.137
		c5.218-0.944,11.795-1.36,15.192-5.87c-1.913-4.782-1.372-8.496-3.261-12.968c-3.603-2.534-3.603-2.534-17.764-8.684
		c-10.217-10.391-17.049-5.969-25.695,6.838c2.068,18.87,4.037,20.584-13.415,20.466c-4.696-14.72,6.943-14.54,8.204-27.186
		c2.907-3.863,6.907-7.18,8.062-9.708c-0.913-1.782-1.565-3.577-2.192-5.068c-3.162,0.199-6.317,0.397-9.212,0.584
		c-2.738-5.342-14.918,2.168-18.452,4.54c-5.044-0.292-9.802-0.298-14.56-0.304c-3.775-8.957-8.59-5.888-16.198-5.1
		c-0.043-0.614-0.087-1.224-0.124-1.832c-8.304-1.621-13.553-8.95-22.204-11.776c-0.628-1.49-1.261-2.981-1.603-4.187
		c-4.578-1.242-16.093-15.223-18.813-20.26c0.534-7.702,1.839-15.751,0.776-23.652c7.323-1.08,19.807-8,26.229-2.888
		C714.992,906.261,716.048,910.18,717.11,914.099z M1316.302,853.23l2.05-0.54l1.993,3.72l-1.596,2.118l-2.77,0.181L1316.302,853.23
		z M954.143,1128.641c-2.268-2.311-4.373-2.174-7.311-2.603c0.18-1.235,0.36-2.472,0.565-3.403
		c5.943-1.913,23.552-7.322,29.08-3.683c-0.199,0.931,0.67,3.503,0.472,4.435c-2.634,0.161-3.397,0.36-4.311,2.565
		C966.391,1127.268,960.111,1127.038,954.143,1128.641z M941.311,1083.48c-2.013-2.329-2.013-2.329-2.416-4.447
		c3.024-6.013,4.59-2.435,4.919,2.447C942.801,1082.157,942.056,1082.822,941.311,1083.48z M906.1,1063.027
		c-11.671-4.472-22.943-3.143-33.415-9.527c-1.242-6.664-1.242-6.664-0.839-8.528c4.528,0.634,4.615,1.851,7.776,5.64
		c8.727,0.057,16.322,2.951,24.782,3.025c6.727,1.72,12.808-2.038,18.54,0.664c0.087,1.218,0.168,2.441,0.516,3.646
		C918.161,1061.648,912.392,1062.326,906.1,1063.027z M858.79,1047.332c-4.701-3.074-5.838-4.229-8.093-10.217
		c1.758-5.323,7.813-1.721,10.851,0.236c0.168,2.44,0.354,5.186,0.541,7.931C860.809,1045.979,859.803,1046.655,858.79,1047.332z
		 M964.335,1033.282c-2.981-5.018-4.323-9.223-2.92-15.75c2.062-0.746,3.057-1.728,5.262-0.336
		C967.03,1022.389,967.241,1029.42,964.335,1033.282z M845.977,1033.736c-5.571-4.242-16.496-13.354-10.192-21.727
		c1.317-0.08,2.634-0.168,4.23,0.038c1,2.999,0.354,5.186,0.819,8.223c4.062,5.261,6.248,6.348,8.093,10.218
		C847.939,1031.47,846.946,1032.45,845.977,1033.736z M780.655,1005.699c-0.832-0.565-1.658-1.124-2.205-1.397
		c-0.168-2.44-0.168-2.44,0.981-4.962c1.056-0.068,2.105-0.137,3.161-0.199c0.342,1.199,0.709,2.708,1.075,4.224
		C782.655,1004.035,781.649,1004.719,780.655,1005.699z M921.329,983.601c-4.826-4.906-13.888-2.187-20.105-4.242
		c-2.819-2.584-2.819-2.584-7.459-4.739c-0.081-1.223-0.143-2.137-0.205-3.056c4.311-2.72,29.9,0.56,29.553,11
		C922.342,982.924,921.832,983.259,921.329,983.601z M850.666,985.93c-1.074-0.236-1.882-0.49-2.695-0.745
		c-0.342-1.205-0.671-2.105-0.733-3.019c2.33-0.764,4.658-1.522,7.249-2.299c1.701,1.733,1.701,1.733,1.801,3.256
		C854.573,985.072,854.573,985.072,850.666,985.93z M884.74,973.961c-1.423-1.44-1.765-2.646-1.404-5.117
		c2.87-0.491,4.833-2.758,7.608-0.789c-0.689,1.577-1.086,3.44-1.49,5.304C887.877,973.458,886.299,973.557,884.74,973.961z
		 M758.55,964.186c-2.527-2.293-4.801-4.597-7.049-6.603c-0.062-0.914,0.161-1.541,0.379-2.168c5.143-2.161,12.49,1.05,18.123,2.224
		c0.081,1.218,0.162,2.441,0.268,3.969C766.364,962.465,762.457,963.327,758.55,964.186z M779.456,960.713
		c-1.067-0.236-2.143-0.472-3.217-0.715c-0.081-1.217-0.168-2.44-0.224-3.354c1.292-0.391,2.87-0.49,4.447-0.59
		c0.081,1.224,0.168,2.44,0.273,3.969C780.208,960.055,779.699,960.396,779.456,960.713z M1312.128,912.845
		c2.51-1.994,2.51-1.994,5.118-2.467c0.105,1.522,0.472,3.031,0.839,4.541c-0.771,0.354-1.541,0.714-2.044,1.05
		c-0.422,1.559-0.565,3.409-0.702,5.255c-1.03,0.372-2.043,1.05-3.056,1.727c-4.329,2.422-5.825,3.738-10.825,4.062
		c-3.453,3.584-3.453,3.584-5.516,4.329c-1.118-0.845-2.229-1.696-3.323-2.235C1292.508,923.59,1307.886,916.49,1312.128,912.845z
		 M1279.229,922.596c-0.366-1.51-0.447-2.733-0.534-3.95c0.789-0.05,1.845-0.118,2.895-0.187c0.062,0.919,0.148,2.137,0.229,3.36
		C1280.763,921.882,1279.999,922.241,1279.229,922.596z M737.147,956.347c1.328-3.758,1.328-3.758,1.727-9.608
		c1.03-0.373,2.329-0.758,3.64-0.845c2.515,1.987,2.515,1.987,3.813,5.584C744.476,955.271,740.786,955.508,737.147,956.347z
		 M801.829,947.651c-0.105-1.528-0.205-3.05-0.025-4.292c0.771-0.354,1.534-0.708,2.305-1.062c0.466-0.95,0.926-1.9,1.416-2.546
		c0.808,0.261,1.621,0.516,2.689,0.751c-0.149,5.528-1.764,9-5.286,11.677C802.562,950.67,802.195,949.16,801.829,947.651z
		 M1282.415,915.036c-3.615-10.496,1.143-10.496,3.72-19.241c1.578-0.1,3.155-0.198,4.733-0.298
		c0.192,6.732-3.907,12.509-5.863,18.763C1283.955,914.322,1283.185,914.683,1282.415,915.036z M808.587,930.365
		c-0.473-3.036-0.938-6.074-1.392-8.801c-1.397-1.137-2.795-2.272-3.913-3.124c-0.1-1.528-0.205-3.05-0.286-4.272
		c4.473-0.286,9.373,1.856,11.323,7.254c-0.969,1.285-1.938,2.571-2.907,3.857c0.305,0.596,0.628,1.497,0.957,2.391
		c1.621,4.497,1.081,8.212-3.211,7.255C808.791,933.415,808.686,931.894,808.587,930.365z M1344.755,879.516
		c-1.484-2.359-1.484-2.359-1.124-4.832c6.13-3.148,7.819-13.372,16.403-11.465c0.41,0.98,2.224,1.906,1.789,2.775
		c-1.547,3.106-9.162,5.845-9.852,10.919C1349.382,877.689,1347.06,878.447,1344.755,879.516z M797.319,892.764
		c-0.043-0.608-0.087-1.217,0.162-1.54c0.788-0.05,1.577-0.1,2.366-0.148c2.024-1.354,2.242-1.981,5.18-1.56
		c1.36,4.516,1.36,4.516,1.081,8.211c-2.286,1.366-5.516,4.336-8.211,3.584c-0.062-0.913-0.125-1.832-0.168-2.441
		c-1.615-0.509-3.236-1.018-4.857-1.527c-1.932-5.093-1.932-5.093-2.242-9.671C792.86,889.373,795.09,891.068,797.319,892.764z
		 M1327.843,860.051c-0.367-1.51-0.733-3.02-1.1-4.528c1.031-0.372,2.329-0.758,3.646-0.845c0.081,1.224,0.187,2.745,0.286,4.273
		C1329.644,859.324,1328.612,859.696,1327.843,860.051z M775.444,870.242c2.229,1.702,7.292,2.299,12.235,5.05
		c0.106,1.528,0.491,3.342,0.876,5.155c-1.845,0.118-3.664,0.541-5.484,0.963c-0.322-0.9-0.627-1.496-0.932-2.087
		c-2.131-0.174-4.229-0.037-6.074,0.074c-0.671-2.099-1.342-4.204-2.013-6.304C774.519,872.144,774.979,871.193,775.444,870.242z
		 M670.316,878.746c-0.789-3.932-0.789-3.932,0.093-6.441c1.316-0.081,2.634-0.168,3.95-0.248c0.1,1.527,0.205,3.05,0.311,4.577
		C673.13,877.348,671.596,878.057,670.316,878.746z M773.568,862.088c-6.292,0.708-7.019,1.671-10.664,2.516
		c-3.317-2.242-6.621-4.181-9.925-6.111c0.161-1.547,0.341-2.783,0.782-4.038c6.056-0.385,13.285,1,18.751,3.715
		C772.86,859.374,773.202,860.578,773.568,862.088z M676.894,831.436c-3.689-3.751-8.08-2.241-12.192-4.434
		C666.646,812.778,687.21,827.716,676.894,831.436z M655.366,825.753c-8.385-2.845-13.168-7.137-20.906-12.161
		c0.137-1.851,0.137-1.851,2.342-4.44c4.533,0.633,4.838,1.224,8.248,4.688c5.143,1.82,10.304,3.944,15.472,6.069
		c-0.181,1.235-0.36,2.471-0.261,4C658.44,824.33,656.906,825.039,655.366,825.753z M694.173,813.48
		c-1.702-1.727-2.721-5.038-0.739-7c0.813,0.254,1.621,0.509,2.429,0.764c0.087,1.224,0.168,2.441,0.516,3.646
		C695.626,811.549,694.899,812.518,694.173,813.48z M1409.567,763.531c-0.105-1.528,0.056-3.068,0.235-4.305
		c0.789-0.056,1.578-0.105,2.367-0.148c1.484,2.354,5.217,4.918,4.9,8.006c-0.771,0.36-3.268,0.465-3.776,0.808
		c-2.261,1.677-3.938,4.235-6.305,4.385C1407.207,767.668,1407.139,766.748,1409.567,763.531z M626.994,804.865
		c-1.658-1.117-3.056-2.255-4.453-3.391c-0.336-4.882,0.975-8.951,1.981-13.615c1.012-0.677,2.043-1.043,3.341-1.435
		c0.038,0.608,0.081,1.217,0.144,2.137c0.527-0.038,1.056-0.068,1.845-0.118c0.553,4.254,1.366,8.497,2.204,13.037
		C630.094,803.754,630.094,803.754,626.994,804.865z M604.572,805.369c-0.087-1.218,0.093-2.454,0.298-3.386
		c1.56-0.41,3.112-0.813,4.695-0.913c0.081,1.217,0.162,2.44,0.268,3.969C607.988,805.157,606.149,805.27,604.572,805.369z
		 M706.011,781.468c-2.311-2.918-1.466-6.036-0.621-9.154c0.528-0.031,1.057-0.068,1.845-0.118c0.037,0.614,0.081,1.224,0.144,2.137
		c0.527-0.031,1.074,0.242,1.881,0.497c-0.154,1.54-0.056,3.068,0.069,4.9C708.029,780.114,707.023,780.791,706.011,781.468z
		 M617.665,776.345c-1.621-0.51-2.975-1.038-4.335-1.565c-0.435-6.41,4.627-5.813,9.167-5.181c0.1,1.528,0.205,3.05,0.311,4.578
		C621.007,774.903,619.205,775.63,617.665,776.345z M1408.636,718.531c-4.379-2.174-2.944-11.161-2.994-15.757
		c1.82-0.422,3.771-1.198,5.876-1.335c-0.192,4.912,1.05,8.639,0.869,13.856C1411.599,715.352,1409.157,718.501,1408.636,718.531z
		 M1430.995,717.116c-0.49-7.329,2.665-17.181,9.118-19.429c0.273,1.056,2.521,5.963,2.603,6.913c0.242,2.839-4.1,5.062-4.882,8.093
		c-0.771,0.36-1.273,0.696-1.783,1.037c0.044,0.609,0.087,1.218,0.149,2.137C1434.38,716.29,1432.554,716.712,1430.995,717.116z
		 M692.713,752.885c-0.366-1.509-0.472-3.03-0.577-4.559c0.795-0.05,1.845-0.118,2.895-0.18c0.087,1.217,0.167,2.44,0.248,3.658
		C694.247,752.177,693.483,752.531,692.713,752.885z M1445.529,658.57c-0.373-5.49-2.46-9.037,3.143-12.155
		c4.472-0.279,5.143,3.404,5.919,7.037C1452.169,656.67,1449.15,657.422,1445.529,658.57z M656.198,670.297
		c-0.807-0.255-1.354-0.521-1.9-0.795c0.155-1.547,0.316-3.087,0.479-4.627c1.838-0.118,3.683-0.236,5.521-0.354
		c-0.155,1.546-0.316,3.087-0.211,4.615C658.788,669.521,657.497,669.912,656.198,670.297z M599.597,653.968
		c-0.161-2.44-0.328-4.888-0.49-7.329c1.068,0.243,2.143,0.479,3.479,0.702c0.391,1.813,1.037,3.608,1.708,5.714
		C602.715,653.154,601.156,653.558,599.597,653.968z M622.933,635.627c-0.367-1.509-0.467-3.037-0.554-4.255
		c1.056-0.068,2.106-0.137,3.162-0.198c0.062,0.912,0.143,2.136,0.224,3.354C624.733,634.9,623.702,635.273,622.933,635.627z
		 M651.311,617.584c-3.174-7.771-1.149-9.124-0.553-15.9c-1.659-1.125-3.323-2.242-4.696-3.075
		c-0.366-1.509-0.453-2.732-0.533-3.949c1.801-0.727,3.621-1.149,5.44-1.571c8.856,5.875,4.235,15.67,2.143,23.77
		C652.323,616.907,651.813,617.248,651.311,617.584z M1458.286,562.132c-0.825-0.56-1.396-1.137-1.943-1.41
		c-0.534-7.932,4.546-11.59,6.18-18.745c1.006-0.677,2.037-1.05,3.335-1.435c3.976,4.037-2.938,15.775-4.186,20.764
		C1460.883,561.355,1459.057,561.777,1458.286,562.132z M1442.964,562.182c-5.18-2.429-7.714-10.864-7.646-17.608
		c6.913-7.187,11.335,0.651,11.186,10.161c-0.136,1.845-0.608,3.895-0.466,6.03C1445.007,561.132,1443.977,561.505,1442.964,562.182
		z M572.604,614.298c-5.479-6.701-12.889-22.478,0.267-23.31c1.553,7.254-1.292,16.018,1.571,23.192
		C573.653,614.229,573.126,614.267,572.604,614.298z M571.964,577.56c-3.832-1.906-2.261-9.975,2.765-6
		c-0.162,1.541-0.057,3.068,0.043,4.597C573.74,576.528,572.71,576.901,571.964,577.56z M657.416,571.219
		c-0.366-1.51-0.473-3.031-0.571-4.56c0.788-0.049,1.838-0.118,2.895-0.181c0.08,1.218,0.161,2.441,0.248,3.659
		C658.956,570.51,658.187,570.864,657.416,571.219z"/>
	<path id="path43" fill="#231F20" d="M700.33,0H2000v713.551L700.33,0z M1338.544,1400H0V665.099L1338.544,1400z"/>
</g>
<g id="Layer_2">
	<path fill="#231F20" d="M1037.501,331.155c166.002,0,301.863,133.302,306.012,298.329
		c-71.471-37.298-164.537-70.322-267.646-91.663c-117.463-24.316-230.598-30.198-320.03-20.254
		C802.587,408.159,911.336,331.155,1037.501,331.155z M1335.501,707.259c-31.801,135.059-153.469,236.119-298,236.119
		c-168.6,0-306.111-137.513-306.111-306.111c0-16.316,1.311-32.341,3.788-47.98c89.607-10.111,203.201-4.268,321.155,20.148
		C1165.075,631.95,1262.526,667.372,1335.501,707.259z M1041.507,371.086l-11.658,35.888l-37.657-0.057l30.714,22.316
		l-11.876,35.664l30.472-22.086l30.489,22.086l-11.707-36.043l30.546-21.938l-37.658,0.057L1041.507,371.086z M838.76,690.116
		l23.701,18.409l-8.416-29.03l24.913-16.708l-30.024-0.918l-8.373-28.907l-10.217,28.311l-30.019-1.006l23.913,18.57l-10.372,28.13
		L838.76,690.116z M1011.843,692.041l20.832,17.802l-10.571,24.986l23.186-14.16l20.689,17.62l-6.392-26.602l23.229-14.056
		l-26.267-2.029l-7.192-26.548l-10.422,25.161L1011.843,692.041z M1153.616,708.302l24.664,17.199l-8.851,28.428l23.757-17.981
		l24.521,17.043l-9.832-28.365l23.856-17.838l-29.825,0.614l-9.783-28.235l-8.683,28.603L1153.616,708.302z M996.737,850.485
		l22.012,17.627l-10.055,26.056l23.359-15.348l21.888,17.479l-7.435-27.162l23.434-15.21l-27.949-1.28l-7.403-27.036l-9.907,26.229
		L996.737,850.485z"/>
</g>
</svg>
