<?xml version="1.0" encoding="utf-8"?>
<!-- Generator: Adobe Illustrator 16.0.0, SVG Export Plug-In . SVG Version: 6.00 Build 0)  -->
<!DOCTYPE svg PUBLIC "-//W3C//DTD SVG 1.1//EN" "http://www.w3.org/Graphics/SVG/1.1/DTD/svg11.dtd">
<svg version="1.1" xmlns="http://www.w3.org/2000/svg" xmlns:xlink="http://www.w3.org/1999/xlink" x="0px" y="0px" width="1000px"
	 height="700px" viewBox="0 0 1000 700" enable-background="new 0 0 1000 700" xml:space="preserve">
<g id="Layer_7">
	<path fill="#231F20" d="M487,460v55h-47v26h47v99h26v-99h47v-26h-47v-55H487z"/>
</g>
<g id="Layer_4">
	<path fill="#231F20" d="M0,0h1000v400h-44.899c0,0-112.028-300-455.101-300C150.107,100,44.899,400,44.899,400H0V0z M482.5,74.27
		l17.333-12.77l17.5,12.77l-6.5-20.937l17.666-12.5h-21.666l-6.834-21L493,40.5l-21.5,0.167L489,53.5L482.5,74.27z"/>
</g>
<g id="Layer_6">
	<path fill="#231F20" d="M490.591,175c271.494,0,381.489,225,381.489,225H127.92C127.92,400,237.914,175,490.591,175z M554.101,280
		c0,0,7.35-15.425,11.692-18.886c4.547-3.623,22.007-7.514,22.007-7.514s-16.881-4.668-22.513-3.755
		C559.93,250.713,546.101,260,546.101,260s0.69-16.526,3.251-21.251c2.852-5.261,17.849-15.949,17.849-15.949
		s-16.462,1.66-21.1,4.402c-4.96,2.932-15,17.499-15,17.499s-5.655-16.325-4.985-21.9c0.688-5.715,10.285-20.6,10.285-20.6
		s-15.273,8.548-18.614,13.166c-3.193,4.414-6.386,20.834-6.386,20.834s-11.729-13.743-13.223-19.424
		C496.789,211.493,500,195,500,195s-10.778,13.725-12.086,19.257C486.663,219.547,490,235.9,490,235.9s-13.845-5.849-17.047-9.537
		c-4.247-4.891-9.353-24.163-9.353-24.163s-4.74,14.675-4.142,19.663C460.185,227.927,470,243.9,470,243.9
		s-13.473,0.267-17.444-1.577C446.258,239.398,432.8,222.8,432.8,222.8s2.319,17.731,5.417,22.665
		c2.828,4.502,16.483,13.435,16.483,13.435s-15.449,5.329-19.46,5.245c-7.293-0.152-23.04-10.544-23.04-10.544
		s9.029,15.652,13.837,19.047c4.294,3.032,20.163,5.953,20.163,5.953s-12.539,10.888-16.01,12.304C423.24,293.739,405,290,405,290
		s13.911,10.835,19.505,12.136C429.74,303.354,445.9,300,445.9,300s-5.726,13.694-9.354,16.87
		c-4.919,4.304-24.346,9.531-24.346,9.531s17.159,4.635,22.871,3.679C440.337,329.197,453.9,320,453.9,320
		s0.312,13.231-1.481,17.141c-2.926,6.375-19.619,20.06-19.619,20.06s17.249-2.052,22.071-5.012
		c4.678-2.871,14.029-16.889,14.029-16.889s5.431,12.471,5.232,16.886C473.822,359.103,463.6,377.8,463.6,377.8
		s14.905-8.118,18.192-12.562c3.345-4.521,6.808-21.438,6.808-21.438s9.886,9.617,11.4,13.836c2.311,6.438,0,27.364,0,27.364
		s10.183-12.074,11.532-17.038C513.101,362.193,510,344.1,510,344.1s14.256,6.197,17.527,10.044
		c4.092,4.812,8.873,23.656,8.873,23.656s4.539-17.877,3.467-23.792C538.955,348.978,530,336.1,530,336.1s16.729,0.781,21.503,3.395
		c5.188,2.841,15.697,17.706,15.697,17.706s-1.343-16.722-5.013-22.073C559.578,331.322,545.3,321.1,545.3,321.1
		s14.477-5.663,19.509-5.241c6.301,0.529,22.991,10.542,22.991,10.542s-8.221-15.507-13.926-19.104
		c-3.67-2.313-20.074-5.896-20.074-5.896s11.276-10.799,16.11-12.338C575.892,287.159,595,290,595,290s-13.011-10.548-18.301-11.878
		C571.201,276.74,554.101,280,554.101,280z"/>
</g>
</svg>
