<?xml version="1.0" encoding="utf-8"?>
<!-- Generator: Adobe Illustrator 16.0.0, SVG Export Plug-In . SVG Version: 6.00 Build 0)  -->
<!DOCTYPE svg PUBLIC "-//W3C//DTD SVG 1.1//EN" "http://www.w3.org/Graphics/SVG/1.1/DTD/svg11.dtd">
<svg version="1.1" xmlns="http://www.w3.org/2000/svg" xmlns:xlink="http://www.w3.org/1999/xlink" x="0px" y="0px" width="1950px"
	 height="1300px" viewBox="0 0 1950 1300" enable-background="new 0 0 1950 1300" xml:space="preserve">
<g id="Layer_1">
	<g>
		<rect id="stripe" x="728.5" fill="#231F20" width="1221.5" height="100"/>
	</g>
	<g>
		<rect id="stripe_1_" x="734" y="200" fill="#231F20" width="1216" height="100"/>
	</g>
	<g>
		<rect id="stripe_2_" x="734" y="400" fill="#231F20" width="1216" height="100"/>
	</g>
	<g>
		<rect id="stripe_3_" y="600" fill="#231F20" width="1950" height="100"/>
	</g>
	<g>
		<rect id="stripe_4_" y="800" fill="#231F20" width="1950" height="100"/>
	</g>
	<g>
		<rect id="stripe_5_" y="1000" fill="#231F20" width="1950" height="100"/>
	</g>
	<g>
		<rect id="stripe_6_" y="1200" fill="#231F20" width="1950" height="100"/>
	</g>
</g>
<g id="Layer_2">
	<path fill="#231F20" d="M0,0h750v500H0V0z M68.892,426.875h-3.398c-0.918,1.855-2.48,3.77-4.688,5.742
		c-2.208,1.973-4.786,3.652-7.734,5.039v5.098c1.641-0.605,3.491-1.514,5.552-2.725c2.061-1.211,3.725-2.422,4.995-3.633V470h5.273
		V426.875z M86.689,467.393c2.49,2.246,5.62,3.369,9.39,3.369c4.179,0,7.636-1.304,10.371-3.911
		c2.734-2.607,4.102-5.786,4.102-9.536c0-2.773-0.703-5.083-2.109-6.929s-3.379-3.062-5.918-3.647
		c1.953-0.898,3.428-2.109,4.424-3.633s1.494-3.213,1.494-5.068c0-1.953-0.523-3.799-1.567-5.537
		c-1.045-1.738-2.554-3.11-4.526-4.116c-1.973-1.006-4.131-1.509-6.475-1.509c-3.398,0-6.24,0.972-8.525,2.915
		s-3.75,4.683-4.395,8.218l5.273,0.938c0.391-2.578,1.27-4.512,2.637-5.801c1.367-1.289,3.076-1.934,5.127-1.934
		c2.07,0,3.76,0.635,5.068,1.904c1.308,1.27,1.963,2.871,1.963,4.805c0,2.441-0.898,4.248-2.695,5.42
		c-1.797,1.172-3.819,1.758-6.064,1.758c-0.215,0-0.498-0.02-0.85-0.059l-0.586,4.629c1.484-0.391,2.725-0.586,3.721-0.586
		c2.441,0,4.453,0.786,6.035,2.358s2.373,3.569,2.373,5.991c0,2.539-0.854,4.668-2.563,6.387c-1.709,1.719-3.804,2.578-6.284,2.578
		c-2.09,0-3.863-0.659-5.317-1.978c-1.455-1.318-2.486-3.472-3.091-6.46l-5.273,0.703C82.778,462.236,84.199,465.146,86.689,467.393
		z M150.073,470c2.597,0,4.897-0.244,6.899-0.732c2.002-0.488,3.71-1.206,5.127-2.153c1.416-0.947,2.72-2.246,3.911-3.896
		c1.191-1.65,2.168-3.735,2.93-6.255s1.143-5.41,1.143-8.672c0-3.828-0.562-7.231-1.685-10.21c-1.124-2.979-2.817-5.425-5.083-7.339
		c-1.739-1.484-3.838-2.51-6.299-3.076c-1.758-0.41-4.307-0.615-7.646-0.615h-14.795V470H150.073z M140.259,432.119h9.023
		c3.379,0,5.83,0.293,7.354,0.879c2.109,0.82,3.901,2.437,5.376,4.849c1.475,2.412,2.212,5.864,2.212,10.356
		c0,3.242-0.376,6.001-1.128,8.276c-0.752,2.275-1.802,4.087-3.149,5.435c-0.957,0.957-2.241,1.699-3.853,2.227
		s-3.833,0.791-6.665,0.791h-9.17V432.119z M210.073,470v-5.068h-26.367v-14.619h23.76v-5.039h-23.76v-13.154h25.371v-5.068h-31.055
		V470H210.073z M239.897,470v-36.562L252.319,470h5.127l12.48-35.947V470h5.479v-42.949h-7.646l-10.283,29.883
		c-1.036,3.027-1.797,5.322-2.285,6.885c-0.43-1.406-1.113-3.525-2.051-6.357l-10.166-30.41h-8.555V470H239.897z M285.894,470
		l4.717-13.008h17.959l5.01,13.008h6.475l-17.578-42.949h-6.123L279.858,470H285.894z M296.968,439.766
		c0.996-2.715,1.768-5.449,2.314-8.203c0.664,2.324,1.68,5.293,3.047,8.906l4.482,11.895h-14.561L296.968,439.766z M330.366,470
		v-19.072h6.592c1.465,0,2.52,0.068,3.164,0.205c0.879,0.215,1.743,0.596,2.593,1.143s1.812,1.504,2.886,2.871
		c1.074,1.367,2.441,3.34,4.102,5.918l5.684,8.936h7.148l-7.471-11.689c-1.484-2.285-3.057-4.189-4.717-5.713
		c-0.781-0.703-1.924-1.416-3.428-2.139c4.121-0.566,7.167-1.895,9.141-3.984c1.973-2.09,2.959-4.658,2.959-7.705
		c0-2.363-0.596-4.521-1.787-6.475c-1.191-1.953-2.783-3.315-4.775-4.087s-4.903-1.157-8.73-1.157h-19.043V470H330.366z
		 M330.366,431.797h13.594c3.183,0,5.512,0.654,6.987,1.963c1.475,1.309,2.212,2.979,2.212,5.01c0,1.387-0.381,2.671-1.143,3.853
		s-1.875,2.041-3.34,2.578s-3.497,0.806-6.094,0.806h-12.217V431.797z M394.087,463.115c-2.208,1.836-4.903,2.754-8.086,2.754
		c-2.618,0-5.049-0.674-7.295-2.021c-2.246-1.348-3.901-3.384-4.966-6.108c-1.065-2.725-1.597-5.913-1.597-9.565
		c0-2.832,0.449-5.581,1.348-8.247c0.898-2.666,2.456-4.79,4.673-6.372c2.216-1.582,4.976-2.373,8.276-2.373
		c2.871,0,5.254,0.713,7.148,2.139c1.894,1.426,3.34,3.701,4.336,6.826l5.596-1.318c-1.153-3.965-3.193-7.041-6.123-9.229
		s-6.543-3.281-10.84-3.281c-3.79,0-7.261,0.864-10.415,2.593c-3.154,1.729-5.586,4.258-7.295,7.588
		c-1.709,3.33-2.563,7.231-2.563,11.704c0,4.102,0.757,7.939,2.271,11.514c1.513,3.574,3.721,6.304,6.621,8.188
		s6.665,2.827,11.294,2.827c4.472,0,8.257-1.226,11.353-3.677c3.095-2.451,5.239-6.011,6.431-10.679l-5.684-1.436
		C397.788,458.555,396.294,461.279,394.087,463.115z M384.478,474.834c0.605,0.195,1.021,0.43,1.245,0.703
		c0.224,0.273,0.337,0.586,0.337,0.938c0,0.566-0.283,1.045-0.85,1.436c-0.743,0.508-2.032,0.762-3.867,0.762
		c-0.586,0-1.504-0.039-2.754-0.117l-0.322,3.428c1.211,0.234,2.617,0.352,4.219,0.352c2.832,0,4.951-0.562,6.357-1.685
		s2.109-2.417,2.109-3.882c0-1.016-0.42-1.938-1.26-2.769c-0.84-0.83-2.09-1.343-3.75-1.538l0.967-3.135h-3.926l-1.523,5.186
		C382.866,474.531,383.872,474.639,384.478,474.834z M411.987,459.805c1.641,3.379,4.053,6.045,7.236,7.998
		c3.183,1.953,6.797,2.93,10.84,2.93c3.73,0,7.207-0.884,10.43-2.651s5.713-4.37,7.471-7.808s2.637-7.334,2.637-11.689
		c0-4.297-0.835-8.14-2.505-11.528s-4.097-6.03-7.28-7.925c-3.184-1.895-6.758-2.842-10.723-2.842
		c-6.055,0-10.997,2.017-14.824,6.05c-3.828,4.033-5.742,9.614-5.742,16.743C409.526,452.852,410.347,456.426,411.987,459.805z
		 M419.736,435.327c2.9-2.764,6.362-4.146,10.386-4.146c2.832,0,5.386,0.718,7.661,2.153c2.275,1.436,4.003,3.457,5.186,6.064
		c1.182,2.607,1.772,5.659,1.772,9.155c0,5.527-1.382,9.795-4.146,12.803c-2.764,3.008-6.284,4.512-10.562,4.512
		c-4.2,0-7.69-1.489-10.474-4.468s-4.175-7.056-4.175-12.231C415.386,442.705,416.836,438.091,419.736,435.327z M490.093,470
		c2.597,0,4.897-0.244,6.899-0.732c2.002-0.488,3.71-1.206,5.127-2.153c1.416-0.947,2.72-2.246,3.911-3.896
		c1.191-1.65,2.168-3.735,2.93-6.255s1.143-5.41,1.143-8.672c0-3.828-0.562-7.231-1.685-10.21c-1.124-2.979-2.817-5.425-5.083-7.339
		c-1.739-1.484-3.838-2.51-6.299-3.076c-1.758-0.41-4.307-0.615-7.646-0.615h-14.795V470H490.093z M480.278,432.119h9.023
		c3.379,0,5.83,0.293,7.354,0.879c2.109,0.82,3.901,2.437,5.376,4.849c1.475,2.412,2.212,5.864,2.212,10.356
		c0,3.242-0.376,6.001-1.128,8.276c-0.752,2.275-1.802,4.087-3.149,5.435c-0.957,0.957-2.241,1.699-3.853,2.227
		s-3.833,0.791-6.665,0.791h-9.17V432.119z M550.093,470v-5.068h-26.367v-14.619h23.76v-5.039h-23.76v-13.154h25.371v-5.068h-31.055
		V470H550.093z M592.339,426.875h-3.398c-0.918,1.855-2.48,3.77-4.688,5.742c-2.208,1.973-4.786,3.652-7.734,5.039v5.098
		c1.641-0.605,3.491-1.514,5.552-2.725c2.061-1.211,3.725-2.422,4.995-3.633V470h5.273V426.875z M607.91,450.562
		c-1.417,1.885-2.124,4.224-2.124,7.017c0,3.75,1.299,6.88,3.896,9.39c2.597,2.51,6.016,3.765,10.254,3.765
		c4.238,0,7.656-1.25,10.254-3.75c2.597-2.5,3.896-5.586,3.896-9.258c0-2.656-0.688-4.941-2.065-6.855s-3.384-3.301-6.021-4.16
		c2.128-0.801,3.716-1.938,4.761-3.413c1.044-1.475,1.567-3.208,1.567-5.2c0-3.125-1.143-5.776-3.428-7.954
		s-5.303-3.267-9.053-3.267c-3.731,0-6.719,1.064-8.965,3.193c-2.246,2.129-3.369,4.756-3.369,7.881c0,2.07,0.527,3.848,1.582,5.332
		s2.676,2.627,4.863,3.428C611.342,447.393,609.326,448.677,607.91,450.562z M613.652,451.455c1.63-1.641,3.687-2.461,6.167-2.461
		c2.539,0,4.653,0.83,6.343,2.49c1.689,1.66,2.534,3.76,2.534,6.299c0,2.5-0.82,4.561-2.461,6.182s-3.721,2.432-6.24,2.432
		c-1.622,0-3.135-0.386-4.541-1.157s-2.466-1.86-3.179-3.267c-0.713-1.406-1.069-2.861-1.069-4.365
		C611.206,455.146,612.021,453.096,613.652,451.455z M614.897,433.145c1.328-1.289,2.998-1.934,5.01-1.934
		c1.992,0,3.657,0.659,4.995,1.978c1.337,1.318,2.007,2.944,2.007,4.878c0,1.855-0.649,3.423-1.948,4.702
		c-1.299,1.279-2.964,1.919-4.995,1.919c-2.09,0-3.79-0.645-5.098-1.934c-1.309-1.289-1.963-2.949-1.963-4.98
		C612.905,435.977,613.569,434.434,614.897,433.145z M645.864,464.932c0.586-0.957,1.328-1.909,2.227-2.856
		c0.898-0.947,2.93-2.749,6.094-5.405c3.789-3.203,6.499-5.723,8.13-7.559c1.63-1.836,2.798-3.584,3.501-5.244
		s1.055-3.35,1.055-5.068c0-3.379-1.201-6.211-3.604-8.496s-5.665-3.428-9.785-3.428c-4.083,0-7.334,1.06-9.756,3.179
		c-2.422,2.119-3.819,5.2-4.189,9.243l5.42,0.557c0.019-2.695,0.791-4.805,2.314-6.328s3.555-2.285,6.094-2.285
		c2.402,0,4.351,0.718,5.845,2.153s2.241,3.198,2.241,5.288c0,1.992-0.82,4.106-2.461,6.343s-4.795,5.269-9.463,9.097
		c-3.008,2.461-5.308,4.629-6.899,6.504c-1.592,1.875-2.75,3.779-3.472,5.713c-0.45,1.172-0.655,2.393-0.615,3.662h28.389v-5.068
		H645.864z M676.875,467.393c2.49,2.246,5.62,3.369,9.39,3.369c4.179,0,7.636-1.304,10.371-3.911
		c2.734-2.607,4.102-5.786,4.102-9.536c0-2.773-0.703-5.083-2.109-6.929s-3.379-3.062-5.918-3.647
		c1.953-0.898,3.428-2.109,4.424-3.633s1.494-3.213,1.494-5.068c0-1.953-0.523-3.799-1.567-5.537
		c-1.045-1.738-2.554-3.11-4.526-4.116c-1.973-1.006-4.131-1.509-6.475-1.509c-3.398,0-6.24,0.972-8.525,2.915
		s-3.75,4.683-4.395,8.218l5.273,0.938c0.391-2.578,1.27-4.512,2.637-5.801c1.367-1.289,3.076-1.934,5.127-1.934
		c2.07,0,3.76,0.635,5.068,1.904c1.308,1.27,1.963,2.871,1.963,4.805c0,2.441-0.898,4.248-2.695,5.42
		c-1.797,1.172-3.819,1.758-6.064,1.758c-0.215,0-0.498-0.02-0.85-0.059l-0.586,4.629c1.484-0.391,2.725-0.586,3.721-0.586
		c2.441,0,4.453,0.786,6.035,2.358s2.373,3.569,2.373,5.991c0,2.539-0.854,4.668-2.563,6.387c-1.709,1.719-3.804,2.578-6.284,2.578
		c-2.09,0-3.863-0.659-5.317-1.978c-1.455-1.318-2.486-3.472-3.091-6.46l-5.273,0.703
		C672.964,462.236,674.385,465.146,676.875,467.393z M257.443,386.804L375,300l117.557,86.804l-44.902-138.197l117.557-85.41
		H419.903L375,25l-44.246,136.176l-145.965,2.021L301.893,250L257.443,386.804z"/>
</g>
</svg>
