<?xml version="1.0" encoding="utf-8"?>
<!-- Generator: Adobe Illustrator 16.0.0, SVG Export Plug-In . SVG Version: 6.00 Build 0)  -->
<!DOCTYPE svg PUBLIC "-//W3C//DTD SVG 1.1//EN" "http://www.w3.org/Graphics/SVG/1.1/DTD/svg11.dtd">
<svg version="1.1" xmlns="http://www.w3.org/2000/svg" xmlns:xlink="http://www.w3.org/1999/xlink" x="0px" y="0px" width="900px"
	 height="600px" viewBox="0 0 900 600" enable-background="new 0 0 900 600" xml:space="preserve">
<g id="Layer_3">
</g>
<g id="Layer_4">
	<path d="M0,0h899.996v300l-280.005,0.333v93.006c0,0-2.855,22.523-22.157,41.16c-19.334,18.667-44.552,18.529-44.552,18.529
		l-83.369,0.854c0,0-9.798,5.216-12.314,7.864c-2.492,2.623-7.157,12.581-7.157,12.581s-5.025-11.454-7.919-14.358
		c-2.21-2.218-10.944-6.087-10.944-6.087l-87.792-1.336c0,0-12.316,3.287-37.926-17.032c-28.085-22.283-24.036-37.07-24.036-37.07
		l-1.688-98.862L0,300V0z M452.237,193.105l12.193,7.021l-2.979-13.647l14.887-10.713l-17.145-1.726l-6.956-15.604l-6.958,15.604
		l-17.144,1.726l12.845,11.371l-3.199,14.654L452.237,193.105z M383.528,256.776c0.561,16.135-11.042,47.818-9.451,63.884
		c0.907,9.16,7.937,27.377,14.476,33.855c8.863,8.779,34.897,13.625,46.064,19.186c4.818,2.399,17.123,13.052,17.123,13.052
		s15.485-10.334,21.048-13.052c12.367-6.043,40.127-14.831,48.776-25.538c4.306-5.33,7.354-19.558,7.325-26.409
		c-0.065-15.148-12.685-44.261-12.007-59.395c0.646-14.413,16.448-55.315,16.448-55.315l-160.662-0.016
		C372.67,207.028,383.074,243.711,383.528,256.776z"/>
</g>
</svg>
